<?xml version="1.0" encoding="utf-8"?>
<!-- Generator: Adobe Illustrator 23.0.1, SVG Export Plug-In . SVG Version: 6.00 Build 0)  -->
<svg version="1.1"
	 id="Layer_1" xmlns:cc="http://creativecommons.org/ns#" xmlns:dc="http://purl.org/dc/elements/1.1/" xmlns:inkscape="http://www.inkscape.org/namespaces/inkscape" xmlns:rdf="http://www.w3.org/1999/02/22-rdf-syntax-ns#" xmlns:sodipodi="http://sodipodi.sourceforge.net/DTD/sodipodi-0.dtd" xmlns:svg="http://www.w3.org/2000/svg"
	 xmlns="http://www.w3.org/2000/svg" xmlns:xlink="http://www.w3.org/1999/xlink" x="0px" y="0px" viewBox="0 0 100 92.4"
	 style="enable-background:new 0 0 100 92.4;" xml:space="preserve">
<style type="text/css">
	.st0{fill:#FFFFFF;}
</style>
<g transform="translate(0,-952.36218)">
	<path class="st0" d="M91.8,961.3c-1,0-2,0.5-2.8,1.2c-10.6,11.1-34.4,36.6-46.4,49.2l-14.1-12.4c-1.6-1.4-4.3-1.2-5.7,0.3
		c-1.4,1.6-1.2,4.3,0.3,5.7l17,15c1.5,1.4,4.2,1.2,5.6-0.2c11.2-11.7,37.9-40.4,49-52c1.1-1.1,1.4-3,0.8-4.4S93.4,961.3,91.8,961.3
		L91.8,961.3z M4,971.4v68c0,2.1,1.9,4,4,4h70c2.1,0,4-1.9,4-4v-35c0-2.1-1.9-4.1-4-4.1s-4,1.9-4,4.1v31H12v-60h54
		c2.1,0,4.1-1.9,4.1-4s-1.9-4-4.1-4H8C5.6,967.4,4,969.7,4,971.4z"/>
</g>
</svg>
