<?xml version="1.0" encoding="utf-8"?>
<!-- Generator: Adobe Illustrator 23.0.1, SVG Export Plug-In . SVG Version: 6.00 Build 0)  -->
<svg version="1.1" id="Layer_1" xmlns="http://www.w3.org/2000/svg" xmlns:xlink="http://www.w3.org/1999/xlink" x="0px" y="0px"
	 viewBox="0 0 354 72" style="enable-background:new 0 0 354 72;" xml:space="preserve">
<style type="text/css">
	.st0{fill:#EEEADE;}
	.st1{opacity:0.3;}
	.st2{fill:#FFFFFF;}
</style>
<path class="st0" d="M29.2,23.5c-0.7-0.4-0.8-1-0.3-1.7c0.4-0.5,0.5-0.8,0-1.3c-0.5-0.4-1-0.9-1.2-1.6c-0.7-2.2,0.3-3.4,2.3-3.5
	c0.4,0,0.8,0,1.3,0c-0.7-0.9-1.2-1.9-1.8-2.8c-1-1.8-1.1-3.8-1.7-5.8c-0.1-0.4-0.1-0.9-0.4-1.3c-0.3-0.6-0.5-0.3-0.7,0.1
	c-0.2,0.5-0.4,1.1-0.6,1.6c-0.8,2.1-1.7,4.1-3.2,5.7c0.3-1,0.9-1.9,1.3-2.9c1-2.3,1.6-4.7,1.9-7.1c0.1-1,0.4-2,0.9-2.9
	c0.2,0,0.5,0,0.7,0c0,0.2,0,0.4,0,0.5c0,0.4,0.4,0.6,0.4,1.1c0,1.7,0.9,3.2,0.9,4.9c0,1.5,1,2.9,1.3,4.4c0.1,0.3,0.3,0.7,0.7,0.8
	l0,0c0,0.2,0,0.4,0.2,0.5l0,0c0.1,1.1,0.9,1.7,1.5,2.5c0.3,0.4,0.3,0.7,0,1.2c-0.4,0.5-0.9,0.8-1.6,0.8c-0.5,0-1,0-1.5,0
	c-0.9,0-1,0.3-0.5,1.1c0.6,1.1,1.4,2.1,2.3,3c-0.4,0.1-0.5,0.6-0.8,0.8c-0.6,0.4-0.4,0.7,0.1,1c0,0.1,0,0.1,0,0.2
	C30.6,23.8,30.2,24,29.2,23.5z"/>
<path class="st0" d="M12.2,29.4c0.7,1,1,2.1,1.5,3.1c1.4,2.9,3.2,5.5,5.6,7.7c0.1,0.8-0.5,0.9-1.1,1.1c-1.9-1.3-3.4-3-4.6-5
	c-1.1-2-2.1-4-3-6c-0.5-1.2-0.2-2.4,0.9-3.3c0.7-0.6,1.3-1,2.3-0.6c0.3,0.1,0.8,0,0.9-0.3c0.2-0.4-0.3-0.4-0.5-0.6
	c-1-1.3-2.2-2.6-3-4.1c-0.4-0.7-0.8-1.4-1.1-2.1c-0.6-1.2,0.3-2.6,1.7-2.7c0.3,0,0.7,0.1,1.1-0.1c-1.3-1.9-2.2-3.9-3-6
	C9.8,10.2,9.8,10,9.6,9.9c0-0.3-0.1-0.6-0.4-1c-0.8,1.9-1.4,3.8-2.3,5.5c-0.2,0.4-0.4,0.7-0.4,1.2c-0.8,0.7-1.6,1.3-1.8,2.5
	c0.3,0.1,0.5,0.6,0.9,0.4c0.4-0.2,0.7-0.5,0.8-1c0-0.2,0-0.5,0-0.7c0-0.4,0-0.7,0-1.1c0.2-0.1,0.4-0.1,0.7-0.2
	c0.1,0.2,0.2,0.3,0.2,0.5C7.2,19.4,6.8,22.7,6,26.1c-0.5,2.5-1.7,4.5-3.8,6c0.3,0.3,0.8,0.3,1.2,0.3c0.5,0,1.1,0,1.6,0
	c0.5,0,0.9,0.2,0.9,0.7c0,0.6,0.3,1.4-0.5,2c0-0.3-0.1-0.4,0-0.5c0.1-0.8-0.2-1.1-1-1c-0.9,0.1-1.7,0-2.6,0C1.1,33,1.1,32.5,1.6,32
	c0.2-0.2,0.4-0.5,0.6-0.6c2.6-1.8,2.9-4.6,3.3-7.3c0.2-1.5,0.4-2.9,0.5-4.4c0-0.3,0.3-0.5,0.1-0.8c-1.1,0.3-1.8,1.5-3.1,1.3
	c-0.9,0-0.6-0.4-0.4-0.8c0.6-1,1.5-1.8,2.1-2.8c1.7-2.6,2.8-5.5,3.3-8.6c0.1-0.8,0.2-1.6,0.8-2.2c0.3-0.3,0.4-0.2,0.6,0
	c0.5,0.6,0.7,1.2,1,1.9c0.9,2.4,2.1,4.7,3.3,7c0.4,0.8,1.1,1.4,1.7,2.2c-0.1,0.8-0.6,1.3-1.3,1.3c-0.8,0-1.7,0-2.5,0c0,0,0,0-0.1,0
	c0,0,0,0,0.1,0c0.1,0.5,0.1,1.1,0.6,1.4c1.3,2.5,3.2,4.5,5,6.6c0.1,0.1,0.2,0.2,0.2,0.4c-0.6-0.1-0.5,0.6-1,0.8
	c-1.1,0.5-2.3,0.3-3.4,0.2c-0.5-0.1-1.2-0.1-1.4,0.3C11.6,28.3,11.5,29,12.2,29.4z"/>
<path class="st0" d="M80.3,55.8c-1.7,1.1-3.5,1.4-5.4,1.1c-0.7-0.2-1.1-0.8-1.8-1.1c-0.4-0.5-0.9-0.9-1.5-0.9
	c-1.7-0.1-3.5-0.2-5.2,0c-3.6,0.4-7.2,1-10.9,0.8c-0.3,0-0.6,0.2-1,0c-1.5-0.7-3.2-0.7-4.7-1.6c-0.1-0.1-0.3,0-0.4,0
	c-1.2-0.5-2.4-1.1-3.6-1.8c-0.1-0.5-0.4-0.3-0.7-0.4c-0.1,0-0.1,0-0.2,0c-0.1,0-0.1-0.1-0.2-0.1c-0.1,0-0.1,0-0.2,0
	c0-0.7-0.6-0.4-0.9-0.5l0,0c-0.9-1-2.1-1.1-3.3-1.4l0,0c-0.2-0.6-0.8-0.5-1.3-0.5l0,0c-0.1-0.3-0.4-0.4-0.6-0.5
	c-2.3-0.9-4.7-1.7-7.2-2.2c-2.1-0.4-4.2-0.5-6.3-0.1c-1.7,0.3-3.4,0.8-4.9,1.7c-1,0.6-2.1,0.8-3,1.4c-1.3,0.9-2.7,1.6-4,2.3
	c-1.4,0.8-2.7,1.6-4.1,2.5c-1,0.7-1.9,1.5-3.1,1.8c2.1-1.7,4.3-3.2,6.6-4.7c1.7-1.1,3.5-2.2,5.3-3.1c2.3-1.2,4.8-2.1,7.3-2.8
	c4-1.1,7.8-0.5,11.6,0.8c3.7,1.3,7.2,3,10.7,4.8c2.2,1.2,4.6,2.3,7,2.8c3,0.7,6.1,0.9,9.2,0.3c2-0.4,4-0.9,6-0.9
	c2.1,0,4.3,0.2,6,1.7c0.9,0.7,1.8,0.7,2.8,0.5c0.7-0.1,1.4-0.3,2.2-0.4C80.5,55.4,80.4,55.6,80.3,55.8z"/>
<path class="st0" d="M54.7,9.3c0.5,0.3,1.1,0.4,1.6,0.3c0.4,0,0.5,0.2,0.4,0.5c-0.3,0.1-0.4,0.6-0.9,0.6c-0.6-0.1-0.6,0.3-0.6,0.7
	c0,1.3,0.1,2.7,0,4c-0.1,1.3,0.1,2.7-0.4,3.9c-0.2,0.6-0.1,0.9,0.4,1.2c2,2,4.3,3.6,6.7,5.1c2.7,1.7,5.5,3.2,8.4,4.5
	c0.2,0.1,0.8,0.1,0.6,0.6c-0.4,0.5-0.7,0.9-1.1,1.4c-0.6,0.2-0.8-0.4-1.2-0.6c-1.8-0.9-3.6-1.9-5.4-2.8c-2.7-1.4-5.2-3.2-7.5-5.1
	c-3.1-2.6-6-5.4-8.1-8.9c-0.5-0.8-0.9-1.5-1.1-2.4c-0.2-0.7-0.2-1.3,0.5-1.8c1.1,0.8,1.3,2.2,1.9,3.3c0.8,1.2,1.8,2.2,2.6,3.4
	c0.5,0.7,1.2,1.3,1.7,1.9c0.4,0.5,0.7,0.2,0.7-0.2c-0.1-1.7,0.7-3.4,0.3-5.2c-0.2-0.7,0-1.6,0.2-2.4c0.1-0.5-0.1-0.5-0.4-0.6
	c-0.3-0.1-0.6,0-0.8-0.3c-0.2-0.4-0.9-0.5-0.7-1c0.4-0.8,0.7-1.6,1.6-2c0.6-0.3,1.1-0.3,1.8-0.2c1.1,0.2,2.2,0.1,3.3,0.1
	c0.4,0,0.8,0.1,0.9,0.5c0,1-0.3,1.3-1.1,1c-1.5-0.6-3-0.2-4.5-0.5c-0.4-0.1-0.8,0.1-0.8,0.5C53.9,9.3,54.3,9.3,54.7,9.3z"/>
<path class="st0" d="M66.6,34.6c-1.7-0.4-3.4-1.1-4.9-2c-3.3-2.1-6.6-4.2-9.3-7c-1.8-1.9-3.6-3.7-5.1-5.8c-0.7-1-1.5-2-2.2-3.1
	c-0.8-0.9-1.1,0.1-1.4,0.4c-1.5,1.7-2.9,3.5-4.5,5.2c-0.7,0.7-1.5,1.3-2.1,2.1c-1.4,2-3.4,3.2-5.2,4.8c-1.2,1.1-2.7,1.9-4,2.8
	c-0.2,0-0.3,0-0.5,0.2l0,0c-0.4,0.2-0.8,0.4-1.3,0.7c0.7-1.4,2-2.3,3.2-3c2.3-1.4,4.3-3.1,6.3-4.8c3-2.6,5.4-5.8,8-8.7
	c0.5-0.6,0.9-1.2,1.3-1.8c0.2-0.3,0.3-0.3,0.7-0.1c0.7,0.4,1,1.1,1.5,1.8c1.8,2.7,4,5.2,6.2,7.6c2.4,2.5,5.1,4.7,8,6.6
	c1.7,1.1,3.6,1.8,5.4,2.4c0.4,0.1,1,0.1,1.1,0.7C67.7,34,67.2,34.4,66.6,34.6z"/>
<path class="st0" d="M80.6,63.2c-0.3,0.6-0.8,0.9-1.5,0.9C78,64.1,77,63.9,76,63.9c-0.7,0-1.3,0.1-1.8,0.6c-0.6,0.5-1.2,0.6-2,0.2
	c-2.1-0.9-4.4-0.9-6.6-1.5c-0.8-0.2-1.6,0.2-2.4,0.4c-1.2,0.4-2.4,0.6-3.6,0.6c-0.9,0-1.8-0.1-2.6,0c-2,0.2-3.6-0.7-5.4-1.2
	c-1.2-0.4-2.3-1.1-3.6-1.3c-1-0.5-1.9-0.9-2.9-1.4c0.2,0,0.4,0.1,0.6-0.1c-2.2-0.9-4.5-0.7-6.7-0.1c-3.1,0.8-5.6,2.8-8.2,4.7
	c-0.3-0.1-0.5,0-0.9,0.2c0.1-0.5,0.3-0.9,0.7-1.1c1.9-1.1,3.6-2.5,5.6-3.5c1.7-0.8,3.5-1.5,5.4-1.8c2.8-0.4,5.2,0.5,7.5,1.6
	c2.7,1.2,5.4,2.4,8.4,2.8c2,0.2,4.1,0.2,6.1-0.6c1.4-0.6,2.8-0.8,4.4-0.2c1.8,0.7,3.8,1,5.8,1.4c0.3,0.1,0.6,0.1,0.7-0.2
	c0.8-1.2,2.1-0.9,3.2-0.8c0.8,0.1,1.6,0.3,2.4,0.3C80.5,62.8,80.7,62.9,80.6,63.2z"/>
<path class="st0" d="M73.8,40.6c0.5,0.4,0.7,1,1,1.5c1.1,2,2.8,3.5,4.6,4.9c0.2,0.2,0.4,0.3,0.6,0.6c-0.2,0.5-0.5,0.8-1.1,1
	c-0.8,0.3-1.5,0.3-2.3,0c-0.6-0.2-1.3-0.1-1.6,0.2c-0.3,0.3,0.3,0.7,0.5,1.1c0.8,0.5,1.7,1,2.2,1.8c0,0.7-0.3,1.2-1.1,1.2
	c-0.9-0.4-1.7-1.1-2.4-1.8c-0.8-0.9-0.9-1.9-0.4-2.9c0.3-0.7,1.1-0.7,1.7-0.9c0.2-0.1,0.5,0,0.9,0c-0.8-1-1.7-1.8-2.3-2.7
	c-0.7-1.1-1.3-2.2-1.9-3.3c-0.5-1-1.1-1.9-1.6-2.9c-0.2-0.3-0.7-0.6-0.2-1.1c0.5-0.5,0.9-1,1.7-0.7c0.6,0.2,1.2,0.3,2,0.5
	c-0.6-1.3-1.1-2.4-1.7-3.6c-0.2-0.4-0.3-0.7,0.1-1c0.3-0.2,0.4-0.3,0.7,0.1c0.9,1.5,1.6,3.1,2.9,4.4c-0.3,1.1-1,1.6-2.2,1.4
	c-0.4,0-0.9-0.2-1.1,0.2c-0.1,0.3,0,0.8,0.3,1.2C73.5,40.1,73.7,40.3,73.8,40.6z"/>
<path class="st0" d="M65.7,17.6c0-0.1,0-0.3,0.1-0.4c0.9-1.6,1.5-3.3,1.8-5.1c0.1-0.7,0.6-1.1,1.1-1.6c0.3,0.1,0.3,0.4,0.5,0.6
	c0.4,1.4,0.7,2.8,1.1,4.1c0.2,0.6,0.2,1.3,0.8,1.7c0.9,2.3,2.2,4.4,4,6.1c-0.6,1.9-2.3,1.3-3.7,1.4c0.1,0.3,0.3,0.4,0.4,0.5
	c0,0.6,0.6,0.8,0.9,1.2c0.5,0.5,0.5,1-0.1,1.4c-0.5,0.4-0.9,0.3-1.3-0.3c-0.3-0.6-0.9-1-1.3-1.6c-0.4-0.8-0.6-1.5-0.2-2.2
	c0.4-0.8,1.2-0.9,2-0.8c0,0.2,0,0.4,0.3,0.3c0.1,0,0.2-0.1,0.2-0.1c0-0.2-0.2-0.3-0.4-0.3c-0.2-0.9-0.9-1.6-1.4-2.4
	c-0.7-1.3-1.3-2.6-1.6-4.1c-0.1-0.5-0.3-1-0.6-1.4c0-0.2-0.1-0.4-0.3-0.5c-0.2,0-0.3,0.1-0.3,0.3c0,1-0.8,1.6-1.1,2.5
	C66.6,17.1,66.3,17.6,65.7,17.6C65.7,17.6,65.7,17.6,65.7,17.6z"/>
<path class="st0" d="M17.9,71c-0.3,0.2-0.6,0.3-1,0.5c0.3-0.8,0.6-1.3,1.5-1.5c0.6-0.1,1.1-0.6,1.6-0.9c1.5-1,3.2-1.4,4.9-1.8
	c1.3-0.3,2.5,0.2,3.6,0.7c1.1,0.5,2.3,0.5,3.4,0.7c2.3,0.4,4.6,0.1,6.8-0.3c2-0.3,4-0.1,5.9,0.5c0.4,0.1,0.8,0.2,0.9,0.7
	c-0.5,0.5-0.9,1-1.7,0.6c-1.3-0.6-2.8-0.7-4.2-0.6c-2.5,0.2-5,0.6-7.5,0.5c-1.3,0-2.7,0.2-3.8-0.8c-0.1-0.1-0.2,0-0.3-0.1
	c-1.2-0.2-2.4-0.5-3.6-0.7c-0.7-0.1-1.3-0.1-2,0.2c-1.1,0.5-2.3,0.9-3.4,1.4C18.5,70.3,18.1,70.6,17.9,71z"/>
<path class="st0" d="M55.4,42.2c0.4-0.7,0.5-1.5,0.5-2.3c0-0.4-0.1-0.8-0.4-1.1c0-0.4-0.1-0.6-0.5-0.5c-0.4,0-0.8-0.1-0.8,0.5
	c-0.8-1.4-0.8-1.4,0.8-1.9c1-0.3,1.5-0.2,1.7,0.4c0.1,1.1,0.2,2.3,0.4,3.4c0.2,1.1,0.6,2.1,0.5,3.2c-0.1,1.5-0.5,2.6-2.4,2.4
	c-1-0.1-2-0.6-3-0.4c-0.5,0-0.7-0.4-0.7-0.8c0.1-1.9-0.6-3.8-0.6-5.7c0-0.6,0.1-1.1,0.6-1.6c0.1,0.2,0,0.5,0.3,0.6
	c-0.1,1.9,0.6,3.8,0.7,5.7c0,0.3,0.2,0.5,0.5,0.5c0.5,0.3,1,0.2,1.5,0.2c0.2,0,0.5,0,0.7,0c0.3-0.2,1,0.7,1-0.2c0-0.7,0-1.5-0.5-2.1
	C56.1,42.1,55.5,42.4,55.4,42.2z"/>
<path class="st0" d="M49.1,49.7c-0.2-0.1-0.4,0.8-0.5,0c-0.4-2.2-0.9-4.4-1.2-6.6c-0.1-0.6,0-1.2-0.1-1.8c0.1-0.6-0.2-0.9-0.8-0.6
	c-1,0.5-2.1,0.2-3.2,0.3c-0.9,0-1.2,0.4-1.1,1.3c0.2,1,0.4,2,0.6,3c0.1,0.8-0.1,1.1-0.9,1.1c-0.4-0.6-0.2-1.2-0.3-1.8
	c-0.2-1.1-0.3-2.2-0.4-3.3c-0.2-1.1,0.9-1.9,2.2-1.6c1.5,0.3,3.1,0.3,4.6-0.2c0.7-0.3,0.3,0.4,0.4,0.6c0.1,2.4,0.9,4.8,1.1,7.2
	C49.6,47.8,50,48.9,49.1,49.7z"/>
<path class="st0" d="M24.3,12.9c-0.1,0.3-0.2,0.6-0.1,0.8c0.1,3.2-1.5,5.7-3.3,8.3c0.5,0,0.9,0,1.2,0c0.5,0,0.9-0.1,1.3-0.4
	C24,21.1,24.4,22,25,22c0,0,0,0.1,0,0.2c-0.6,2-1.2,3.9-2.4,5.7c-0.1,0.1-0.2,0.1-0.3,0.2c0.5-1.1,1.1-2.1,1.1-3.3
	c-0.4,1.3-1.1,2.5-2.1,3.5c0,0-0.1-0.1-0.1-0.1c0.8-1.3,1.5-2.7,2-4.2c0-0.1,0.2-0.3,0-0.4c-0.1,0-0.3,0.1-0.4,0.1
	c-0.2-0.3,0.6-0.2,0.3-0.6c-0.2-0.2-0.5-0.1-0.8,0c-0.7,0.3-1.3,0.5-2.1,0.4c-0.5,0-0.7-0.2-0.4-0.6c0.9-1,1.4-2.3,2.1-3.4
	c0.6-0.9,0.7-2.2,0.8-3.3c0.2-0.3,0.3-0.6,0.1-1c-0.8,0.5-1.6,1-2.4,1.5c-0.6,0-0.8-0.1-0.4-0.6c0.8-1,1.6-1.9,2.6-2.6
	c0.1,0.5,0.3,0.4,0.6,0.1C23.6,13.3,23.8,12.9,24.3,12.9z M22.5,14.1C22.5,14.1,22.5,14.1,22.5,14.1c-0.1,0-0.1,0-0.1,0.1
	c0,0,0,0,0.1,0.1C22.5,14.2,22.5,14.2,22.5,14.1z"/>
<path class="st0" d="M61.6,51.3c-0.8-1.4-1.4-2.9-1.8-4.4c-0.5-1.7-0.4-3.5-0.7-5.2c-0.2-0.9,0-1.8,0.2-2.7c0.2-0.8,0.2-1.6,0-2.5
	c-0.2-0.7-0.1-1.4,0.5-2c0.1-0.1,0.3-0.3,0.4-0.3c0.2,0.1,0.1,0.4,0.1,0.6c0,0.3,0,0.5,0,0.8c-0.4,2.2-0.1,4.4,0.1,6.6
	c0.3,2.6,0.9,5.2,2,7.6C62.8,50.8,62.5,51.3,61.6,51.3z"/>
<path class="st0" d="M33.9,31.9c-0.2,0-0.3,0-0.4-0.2c0-0.1,0-0.2,0-0.3c0.2-0.4,0.6-0.4,0.9-0.3c2.5,0.2,5,0.3,7.5-0.2
	c1-0.2,2.1,0,3.2,0c0.1,0,0.2,0,0.3,0c2.7,0.1,5.4,0.3,8.1,0.6c0.4,0,0.5,0.2,0.5,0.5c-0.5,0.4-1,0.7-1.6,0.6
	c-3.2-0.4-6.5-0.6-9.7-0.6C39.8,31.9,36.9,31.9,33.9,31.9z"/>
<path class="st0" d="M38.2,42.6c0-0.1,0-0.2-0.1-0.3c-0.1-0.3-0.3-0.5-0.6-0.7c-0.2,0-0.5,0-0.9-0.1c0.9-0.8,1.7-1.7,1.1-2.9
	c-0.5-0.6-1.3-0.8-2.2-0.5c-0.4,0.1-0.6,0.4-0.5,0.7c0.1,0.5,0,1,0.1,1.6c0.2,1,0.3,2,0,3c-0.6,0-0.7-0.3-0.8-0.9
	c0-0.6-0.1-1.1-0.3-1.7c-0.3-1.1,0.1-2.1,0.4-3.1c0.2-0.5,0.6-0.9,1.3-0.8c0.8,0.2,1.8-0.3,2.6,0.4c0.1,0.2,0.2,0.3,0.5,0.3
	c0,0.1,0,0.2,0.1,0.2c0,1.5,0.3,2.9,0.5,4.4c0.1,0.7-0.2,1-0.9,0.9c0-0.1-0.1-0.2-0.1-0.2C38.2,42.9,38.2,42.7,38.2,42.6z"/>
<path class="st0" d="M33,24.7c-1.5,1.6-2.8,3.4-4.9,4.4c-1.4,0.6-2.7,1.5-4.1,2.1c-0.3,0.1-0.5,0.2-0.3,0.6c0.4,0.9-0.1,1.4-0.9,1.7
	c-0.2-0.1-0.3-0.2-0.5-0.4c-1-0.9-0.9-1.6,0.3-2.3c1-0.6,2.2-1.1,3.3-1.5c2-0.7,3.6-2.1,5.3-3.4C31.7,25.6,32.3,25,33,24.7z"/>
<path class="st0" d="M30.7,42c0-2.5,0-4.9,0-7.4c0-0.7,0-1.4-0.2-2c-0.3-0.7,0.1-1.1,0.5-1.3c0.5-0.2,0.3,0.5,0.6,0.7
	c0.1,1.2,0.5,2.4,0.2,3.6c-0.1,0.6-0.3,1.3-0.1,1.8c0.5,1.6-0.2,3.1-0.3,4.7c0,0.2-0.1,0.6-0.5,0.6C30.5,42.6,30.7,42.2,30.7,42z"/>
<path class="st0" d="M58.1,22.3c-0.5-0.4-0.7-1-0.7-1.5c0-2.6-0.5-5.1-0.4-7.6c0-0.7,0.3-1.5,0.2-2.2l0,0c0.4-0.1,0.8-0.1,0.7,0.5
	c-0.1,2.4,0,4.8,0.5,7.2c0.1,0.6,0.1,1.2,0.4,1.7C59.2,21.3,58.4,21.7,58.1,22.3z"/>
<path class="st0" d="M44.2,29.3c0-2.7-0.3-5.3-0.2-8c0-0.4,0-0.7,0.2-1c0.1-0.2,0.3-0.5,0.5-0.4c0.3,0.1,0.1,0.4,0.2,0.6
	c-0.1,3.2,0.3,6.3,0.2,9.5c-0.2,0.1-0.4,0.3-0.6,0.4c-0.2-0.3,0.1-0.7-0.3-1C44.2,29.4,44.2,29.3,44.2,29.3z"/>
<path class="st0" d="M43.9,12.7c-0.7,2-2.1,3.6-3.5,5.1c-2.1,2.1-4.3,4.2-6.4,6.2c-0.2,0.2-0.4,0.5-0.8,0.4c0.1-0.4,0.5-0.6,0.8-0.9
	c1.4-1.5,2.9-2.9,4.3-4.4c0.4-0.5,0.9-0.8,1.4-1.2c1.3-1.1,2.1-2.6,2.8-4.1c0.3-0.6,0.7-1.1,1.1-1.6c0.2-0.1,0.3-0.1,0.5-0.2
	c0,0.1,0,0.2,0,0.4l0,0c-0.1,0.1-0.2,0.1-0.2,0.2c0,0-0.1,0.1,0,0.1C43.8,12.7,43.8,12.7,43.9,12.7z"/>
<path class="st0" d="M3.8,37.7c0.3,0.3,0,0.5-0.1,0.7c-0.3,0.4-0.7,0.9-1.1,1.3c0.2,0.3,0.6,0.1,0.8,0.2C3.8,39.8,4,40,4,40.4
	c0,0.5-0.6,0.7-0.6,1.3c-0.3-0.1-0.7,0.6-0.9-0.2C3,41,2.4,41,2.2,40.9c-0.6,0-1.2,0-1.7-0.2c-0.4,0-0.6-0.1-0.4-0.5
	c0.1-0.3,0.3-0.7,0.7-0.7C2,39.2,2.8,38.4,3.8,37.7z"/>
<path class="st0" d="M43,29.8c-1.2-0.9-2.2-2.1-3-3.4c-0.2-0.2-0.3-0.5-0.1-0.7c0.3-0.2,0.6-0.1,0.9,0.1c1.1,0.9,2.1,1.9,2.9,3.1
	C43.7,29.3,43.1,29.3,43,29.8z"/>
<path class="st0" d="M64.6,23.9c-0.3,0.2-0.5,0.4-0.8,0.7c0.6-1.1,1.5-2.1,1.8-3.4c0.3-1.2,0.1-1.3-1.2-1c-0.5-0.1-0.8-0.3-0.4-0.8
	c0.5-0.7,1-1.3,1.6-1.8l0,0c-0.1,0.6-0.6,0.9-0.8,1.4c0.6,0.1,1-0.1,1.4-0.3c0.2,0.2,0.5,0.2,0.5,0.6C66.2,20.8,65.7,22.5,64.6,23.9
	z"/>
<path class="st0" d="M55.2,42c0,0.1,0,0.1,0,0.2c-0.5,0.6-0.2,1.5-0.5,2.1c-0.2,0-0.5,0-0.6-0.3c-0.5-1.2-0.6-2.5-0.1-3.7
	c0.1-0.1,0.3-0.3,0.4-0.3c0.3,0.1,0.2,0.4,0.3,0.6C54.7,41.1,54.6,41.6,55.2,42z"/>
<path class="st0" d="M20.4,30.2c-0.3,0.4-0.5,0.9-1.1,1c-0.3,0-0.9,0.7-0.8-0.3c0-0.1-0.1-0.1-0.2-0.1c-0.2,0.1-0.4,0.2-0.5-0.2
	c-0.1-0.3,0.2-0.5,0.4-0.5c1.4-0.1,2-1.3,2.9-2c0,0,0.1,0.1,0.1,0.1c-0.3,0.9-1.3,1.3-1.7,2.1C19.9,30.5,20.1,30.1,20.4,30.2z"/>
<path class="st0" d="M48.2,28.7c-0.2,0-0.5,0.1-0.7-0.2c0.8-1,1.9-1.5,3.1-1.9c0.1,0.4-0.3,0.5-0.2,0.8l0,0c-0.2-0.1-0.3,0-0.4,0.2
	C49.4,28,48.8,28.3,48.2,28.7z"/>
<path class="st0" d="M5.9,56.2c0,0.2-0.1,0.4-0.2,0.4c-1.1,0.6-2,1.5-3,2.2c-0.2-0.1-0.6,0.1-0.6-0.1C2,58.4,2.3,58.1,2.6,58
	C3.8,57.5,4.8,56.7,5.9,56.2z"/>
<path class="st0" d="M46.4,47c-0.4,0-0.6-0.2-0.5-0.6c0.2-0.5,0.5-0.9,0.9-1c0.2-0.1,0.2,0.4,0.2,0.6C46.9,46.3,46.6,46.7,46.4,47z"
	/>
<path class="st0" d="M16.1,28.1c0.2-0.2,0.5-0.1,0.8-0.1C16.7,28.3,16.4,28.1,16.1,28.1z"/>
<path class="st0" d="M31.7,21.3c-0.2-0.1-0.1-0.3-0.2-0.4C31.8,21,32.1,21,31.7,21.3z"/>
<path class="st0" d="M23.1,13c-0.1,0.2-0.2,0.4-0.4,0.5C22.7,13.2,22.9,13,23.1,13z"/>
<path class="st0" d="M12.2,29c-0.1-0.2-0.2-0.4,0-0.6C12.2,28.6,12.2,28.8,12.2,29z"/>
<path class="st0" d="M21.9,28.6c0.1-0.2,0.1-0.3,0.2-0.5C22.2,28.3,22.1,28.5,21.9,28.6z"/>
<path class="st0" d="M54.5,32.4c0-0.1,0-0.2,0-0.3C54.7,32.2,54.7,32.3,54.5,32.4z"/>
<path class="st0" d="M21.6,29c0-0.1,0-0.3,0.2-0.4C21.8,28.7,21.9,28.9,21.6,29z"/>
<path class="st0" d="M12.5,28.1c0.1-0.1,0.3-0.1,0.5-0.1C12.8,28.2,12.7,28.1,12.5,28.1z"/>
<path class="st0" d="M21.3,29.3c0.1-0.1,0.1-0.1,0.2-0.2C21.6,29.3,21.4,29.2,21.3,29.3z"/>
<path class="st0" d="M31.4,21.8C31.4,21.8,31.5,21.8,31.4,21.8L31.4,21.8L31.4,21.8z"/>
<path class="st0" d="M14,28L14,28L14,28L14,28z"/>
<path class="st0" d="M20.8,29.8c0.1-0.1,0.1-0.1,0.2-0.2C20.9,29.7,20.9,29.7,20.8,29.8z"/>
<path class="st0" d="M20.6,30c0.1,0,0.1-0.1,0.2-0.1C20.7,29.9,20.7,29.9,20.6,30z"/>
<path class="st0" d="M22.6,23.8C22.6,23.7,22.6,23.7,22.6,23.8L22.6,23.8L22.6,23.8z"/>
<g class="st1">
	<path class="st0" d="M81.2,64.2c-0.5,0.3-0.9,0.5-1.6,0.4c-1.2-0.2-2.4-0.1-3.6-0.1c-0.5,0-0.9,0.2-1.3,0.5c-0.6,0.5-1.2,0.6-2,0.3
		c-1.9-0.8-3.9-1.1-5.9-1.5c-1.1-0.2-2-0.1-3,0.4c-1,0.5-2.2,0.6-3.3,0.5c-1.8-0.1-3.6,0.3-5.4-0.2c-2.4-0.8-5-1.2-7.1-2.8
		c1.3,0.2,2.4,0.9,3.6,1.3c1.8,0.5,3.4,1.4,5.4,1.2c0.9-0.1,1.7,0,2.6,0c1.2,0,2.4-0.2,3.6-0.6c0.8-0.3,1.5-0.7,2.4-0.4
		c2.2,0.6,4.5,0.6,6.6,1.5c0.8,0.3,1.4,0.3,2-0.2c0.5-0.5,1.1-0.6,1.8-0.6c1,0,2.1,0.3,3.1,0.2c0.7,0,1.2-0.2,1.5-0.9
		c0.2,0.2,0.4,0.2,0.6,0.2C81.2,63.6,81.2,63.9,81.2,64.2z"/>
	<path class="st0" d="M81.2,55.8c-0.8,1.2-2.1,1.5-3.4,1.6c-1.1,0.1-2,0.2-2.9-0.6c1.9,0.3,3.8,0,5.4-1.1c0.3-0.1,0.6-0.1,0.9-0.2
		C81.2,55.7,81.2,55.7,81.2,55.8z"/>
	<path class="st0" d="M5.9,56.2C7.1,55.9,8,55,9,54.4c1.3-0.9,2.7-1.7,4.1-2.5c1.4-0.7,2.7-1.4,4-2.3c0.9-0.6,2-0.8,3-1.4
		c1.5-0.9,3.2-1.4,4.9-1.7c2.1-0.3,4.2-0.3,6.3,0.1c2.5,0.5,4.9,1.3,7.2,2.2c0.2,0.1,0.5,0.2,0.6,0.5c-1.1-0.2-2.1-0.7-3.1-1.1
		c-3.3-1.1-6.6-1.7-10.1-1.3c-3.4,0.5-6.3,2.1-9.3,3.6c-3.5,1.7-6.4,4.1-9.7,6.1c-1.1,0.7-2.2,1.6-3.3,2.3c-0.2,0.1-0.5,0.3-0.7,0.4
		c-0.5,0.1-0.5-0.2-0.3-0.5c1-0.7,1.9-1.7,3-2.2C5.9,56.5,5.9,56.3,5.9,56.2z"/>
	<path class="st0" d="M44,12.4c0.2,0.1,0.6-0.2,0.4,0.5c-0.4,1.5-1.3,2.6-2.2,3.8c-2.1,3-5.1,5.1-7.6,7.7c-1.1,1.2-2.2,2.4-3.5,3.5
		c-1.8,1.5-3.9,2.8-6,3.7c-0.4,0.2-0.7,0.3-1.1,0.4c0.2,0.6,0.5,1.3-0.3,1.9c-0.5,0.3-0.7-0.1-1-0.3c0.8-0.3,1.2-0.8,0.9-1.7
		c-0.2-0.4,0.1-0.5,0.3-0.6c1.4-0.6,2.7-1.5,4.1-2.1c2.2-1,3.4-2.8,4.9-4.4c0,0,0.1-0.1,0.1-0.1c0.4,0,0.5-0.2,0.8-0.4
		c2.1-2.1,4.4-4.1,6.4-6.2c1.4-1.5,2.8-3.1,3.5-5.1C44,12.7,44.2,12.6,44,12.4L44,12.4z"/>
	<path class="st0" d="M28,31.9c1.3-0.9,2.8-1.7,4-2.8c1.8-1.6,3.8-2.8,5.2-4.8c0.6-0.8,1.4-1.4,2.1-2.1c1.6-1.6,3-3.4,4.5-5.2
		c0.3-0.3,0.6-1.4,1.4-0.4c-3.2,4-6.7,7.7-10.5,11.2c-2.1,1.9-4.5,3.6-7,5c-0.3,0.1-0.5,0.3-0.8,0.5c-0.1-0.6,0.8-0.6,0.6-1.2l0,0
		C27.8,32.3,27.9,32.1,28,31.9z"/>
	<path class="st0" d="M17.9,71c0.2-0.4,0.6-0.7,1.1-0.9c1.1-0.5,2.3-0.9,3.4-1.4c0.7-0.3,1.3-0.3,2-0.2c1.2,0.2,2.4,0.4,3.6,0.7
		c0.1,0,0.3,0,0.3,0.1c1.1,1,2.4,0.8,3.8,0.8c2.5,0.1,5-0.3,7.5-0.5c1.4-0.1,2.8,0,4.2,0.6c0.8,0.3,1.2-0.2,1.7-0.6
		c0.6,0,0.7,0.3,0.3,0.7c-0.4,0.4-0.8,0.6-1.5,0.4c-2-0.7-4-0.6-6.1-0.3c-3.7,0.5-7.4,0.7-10.9-0.7c-2.4-1-4.7-0.5-7,0.7
		c-0.9,0.5-1.7,1.1-2.7,1.7C17.7,71.6,17.8,71.3,17.9,71z"/>
	<path class="st0" d="M49.4,54.2c0.2,0,0.3,0,0.4,0c1.4,0.9,3.1,1,4.7,1.6c0.3,0.2,0.6-0.1,1,0c3.7,0.2,7.3-0.5,10.9-0.8
		c1.7-0.2,3.5-0.1,5.2,0c0.6,0,1.1,0.4,1.5,0.9c-2.3-0.3-4.6-0.3-6.9,0c-1,0.1-2.1,0-3.1,0.2c-2.4,0.4-4.8,0.5-7.2,0.4
		C53.6,56.2,51.4,55.5,49.4,54.2z"/>
	<path class="st0" d="M33.9,31.9c2.9,0,5.9,0,8.8,0c3.3,0,6.5,0.2,9.7,0.6c0.6,0.1,1.1-0.2,1.6-0.6c0.1,0,0.3,0.1,0.4,0.1
		c0,0.1,0,0.2,0,0.3c-0.2,0.6-0.6,0.6-1.1,0.6c-1.7,0-3.4-0.3-5.2-0.3c-2.1-0.1-4.3,0-6.4,0c-2.2,0-4.3,0-6.5,0
		C34.8,32.6,34.2,32.5,33.9,31.9z"/>
	<path class="st0" d="M3.4,32.3c-0.4,0-0.8,0.1-1.2-0.3c2.1-1.5,3.2-3.5,3.8-6c0.7-3.3,1.2-6.7,1.4-10.1c0.9,0.2,0.5,0.9,0.5,1.4
		c-0.1,1.7-0.2,3.4-0.5,5.1C7,24.7,6.9,27,5.7,29.1C5.1,30.2,4.3,31.3,3.4,32.3z"/>
	<path class="st0" d="M30.8,64.8c2.5-1.9,5-3.9,8.2-4.7c2.2-0.5,4.5-0.8,6.7,0.1c-0.2,0.2-0.4,0.1-0.6,0.1
		c-3.8-0.6-7.3,0.7-10.5,2.5c-1.2,0.7-2.1,1.9-3.4,2.4c-0.2,0.1-0.4,0.3-0.6,0.2C30.5,65.1,30.8,65,30.8,64.8z"/>
	<path class="st0" d="M1.8,33.4c0.9,0,1.7,0.1,2.6,0c0.8-0.1,1.2,0.2,1,1c0,0.1,0,0.3,0,0.5c0.8-0.6,0.5-1.3,0.5-2
		c0-0.5-0.4-0.7-0.9-0.7c0.9-0.3,1.6,0.1,1.6,1c0,2-0.6,3.9-2.1,5.3c-0.4,0.4-0.7,0.8-1.1,1.2c-0.3,0-0.6,0.1-0.8-0.2
		c0.4-0.4,0.7-0.9,1.1-1.3c0.1-0.2,0.4-0.4,0.1-0.7c0.9-0.9,1.6-1.9,1.5-3.2c0-0.5-0.2-0.6-0.6-0.6c-1,0-2,0.1-2.9-0.4
		C1.7,33.5,1.7,33.5,1.8,33.4C1.7,33.4,1.7,33.4,1.8,33.4z"/>
	<path class="st0" d="M61.6,51.3c0.9,0,1.2-0.6,0.8-1.6c-1.1-2.4-1.7-5-2-7.6c-0.2-2.2-0.5-4.4-0.1-6.6c0-0.3,0-0.5,0-0.8
		c0.7,0.2,0.6,0.8,0.5,1.2c-0.3,1.7-0.1,3.5,0,5.2c0.1,1.6,0.4,3.2,0.6,4.7c0.2,1.4,0.8,2.7,1.4,3.9c0.2,0.5,0.2,1,0.2,1.6
		c0,0.4-0.3,0.6-0.6,0.7c-0.3,0.1-0.3-0.3-0.4-0.4C61.8,51.7,61.7,51.5,61.6,51.3z"/>
	<path class="st0" d="M52.4,45.9c1-0.2,2,0.3,3,0.4c1.9,0.2,2.3-0.9,2.4-2.4c0.1-1.1-0.4-2.2-0.5-3.2c-0.2-1.1-0.3-2.3-0.4-3.4
		c0.2,0,0.5-0.1,0.5,0.3c0,2.5,0.9,5,0.9,7.5c0,1.5-0.9,2.3-2.4,2c-1-0.2-1.9-0.6-3-0.5C52.5,46.5,52.4,46.3,52.4,45.9z"/>
	<path class="st0" d="M30.7,42c0.1,0.2-0.1,0.6,0.3,0.7c0.3,0,0.4-0.3,0.5-0.6c0.1-1.6,0.8-3.1,0.3-4.7c-0.2-0.6,0-1.2,0.1-1.8
		c0.3-1.2-0.1-2.4-0.2-3.6c0.4,0.2,0.6,0.6,0.7,1.3c0.2,1.3,0.3,2.6,0,3.9c-0.2,1,0.3,2,0,3c-0.2,0.8-0.2,1.6-0.2,2.4
		c0,0.6-0.5,0.9-1,1.4C31.1,43.2,30,42.8,30.7,42z"/>
	<path class="st0" d="M55.2,20.6c-0.5-0.3-0.6-0.6-0.4-1.2c0.5-1.2,0.3-2.6,0.4-3.9c0.1-1.3,0-2.7,0-4c0-0.4,0-0.8,0.6-0.7
		c0.5,0.1,0.5-0.4,0.9-0.6c0.6-0.1,0.7,0.2,0.5,0.7l0,0c-0.4,0.1-0.7,0.4-1.1,0.4c-0.4,0-0.3,0.4-0.3,0.6c0,1.2,0,2.4,0,3.6
		C55.7,17.3,55.8,19,55.2,20.6z"/>
	<path class="st0" d="M24.3,12.9c-0.5-0.1-0.7,0.4-1,0.6c-0.3,0.3-0.5,0.4-0.6-0.1l0,0c0.3,0,0.4-0.2,0.4-0.5l0,0
		c1.5-1.7,2.4-3.6,3.2-5.7c0.2-0.5,0.3-1.1,0.6-1.6c0.2-0.4,0.4-0.7,0.7-0.1C26.7,8.1,25.9,10.7,24.3,12.9z"/>
	<path class="st0" d="M22,22.1c-0.3,0-0.7,0-1.2,0c1.9-2.5,3.4-5.1,3.3-8.3c0.3-0.1,0.5-0.2,0.5,0.3c0,0.6,0.1,1.2,0,1.7
		c-0.6,2-1,4-2.3,5.7C22.2,21.6,22.2,21.9,22,22.1z"/>
	<path class="st0" d="M42,46.3c0.7,0,1-0.3,0.9-1.1c-0.2-1-0.4-2-0.6-3c-0.2-1,0.1-1.3,1.1-1.3c1.1,0,2.1,0.2,3.2-0.3
		c0.5-0.3,0.9,0,0.8,0.6c-1.1,0.5-2.3,0-3.5,0.1c-0.7,0.1-1,0.1-0.9,1c0.2,1.1,0.2,2.3,0.4,3.4c0.2,0.6-0.2,0.8-0.5,1
		c-0.5,0.4-0.4-0.4-0.7-0.4C42.1,46.5,42,46.4,42,46.3z"/>
	<path class="st0" d="M58.1,22.3c0.3-0.6,1-1,0.7-1.8c-0.2-0.6-0.3-1.1-0.4-1.7c-0.4-2.4-0.6-4.8-0.5-7.2c0.3-0.1,0.6-0.5,0.5,0.2
		c-0.1,1.7,0.1,3.4,0.2,5.2c0.1,1.3,0.2,2.7,0.6,4c0.2,0.5,0.2,1-0.2,1.4C58.8,22.7,58.5,22.9,58.1,22.3z"/>
	<path class="st0" d="M45.1,30c0.2-3.2-0.3-6.3-0.2-9.5c0.5-0.3,0.5,0.1,0.5,0.4c-0.1,2.3,0.3,4.6,0.2,7c0,0.5,0,1.1,0.1,1.6
		c0.1,0.5,0.1,1-0.3,1.4c-0.1,0-0.2,0-0.3,0C45.1,30.6,45.1,30.3,45.1,30z"/>
	<path class="st0" d="M49.1,49.7c0.9-0.8,0.5-1.8,0.4-2.7c-0.2-2.4-1-4.7-1.1-7.2c0.2,0,0.5-0.3,0.5,0.2c0.3,2.2,0.6,4.4,0.9,6.6
		c0.1,0.6,0,1.2,0.2,1.7c0.4,1,0,1.6-0.7,2.3C49,50.3,49.2,49.9,49.1,49.7z"/>
	<path class="st0" d="M29.2,17.8c-0.5-0.8-0.4-1,0.5-1.1c0.5,0,1,0,1.5,0c0.7,0,1.2-0.3,1.6-0.8c0.3-0.4,0.3-0.7,0-1.2
		c-0.6-0.8-1.4-1.5-1.5-2.5c0.8,1,1.5,2.1,2.3,3c0.5,0.5,0,1.4-0.9,1.8c-0.5,0.2-1,0.2-1.5,0.2C30.6,17.2,29.9,17.4,29.2,17.8z"/>
	<path class="st0" d="M6.5,15.6c0-0.4,0.2-0.8,0.4-1.2c0.9-1.8,1.5-3.7,2.3-5.5c0.3,0.3,0.4,0.6,0.4,1c-0.8,1.9-1.5,3.8-2.4,5.6
		C6.9,15.5,6.7,15.6,6.5,15.6C6.5,15.6,6.5,15.6,6.5,15.6z"/>
	<path class="st0" d="M35,43.4c0.3-1,0.2-2,0-3c-0.1-0.5-0.1-1-0.1-1.6c0-0.3,0.1-0.6,0.5-0.7c0.9-0.3,1.7-0.1,2.2,0.5
		c-0.5,0-1,0.1-1.4,0.1c-0.7,0-0.9,0.2-0.8,0.9c0.1,1.2,0.3,2.5,0.2,3.7c0,0.2,0.1,0.5-0.2,0.6C35.1,43.9,35.1,43.7,35,43.4z"/>
	<path class="st0" d="M64.6,23.9c1.1-1.3,1.6-3,2.2-4.6c0.6,0,0.6,0.4,0.5,0.8c-0.4,1.2-0.7,2.4-1.3,3.5c-0.1,0.2-0.2,0.4-0.4,0.6
		c-0.2,0.2-0.4,0.5-0.7,0.4C64.5,24.4,64.9,24,64.6,23.9z"/>
	<path class="st0" d="M54.7,9.3c-0.3,0-0.8,0-0.8-0.4c0-0.4,0.5-0.6,0.8-0.5c1.5,0.3,3-0.1,4.5,0.5c0.8,0.3,1.1,0,1.1-1
		c0.5,0.1,0.6,0.5,0.5,0.9c-0.1,0.4-0.4,0.7-0.7,1c-0.1,0.1-0.3,0-0.3-0.1c-0.5-0.8-1.2-0.5-1.9-0.6c-0.8,0-1.5,0.1-2.3-0.1
		C55.2,8.9,54.8,8.8,54.7,9.3z"/>
	<path class="st0" d="M31.2,11.7c-0.4-0.1-0.6-0.5-0.7-0.8c-0.3-1.5-1.2-2.9-1.3-4.4c-0.1-1.7-1-3.2-0.9-4.9c0-0.4-0.4-0.7-0.4-1.1
		c0.3-0.1,0.5,0,0.5,0.4C29.2,4.5,30,8.2,31.2,11.7z"/>
	<path class="st0" d="M66.3,18.7c-0.4,0.3-0.8,0.4-1.4,0.3c0.2-0.6,0.8-0.9,0.8-1.4c0.6,0,0.8-0.5,1-0.8c0.3-0.8,1.1-1.5,1.1-2.5
		c0-0.1,0.1-0.3,0.3-0.3c0.2,0.1,0.3,0.3,0.3,0.5C68,16.1,67.2,17.4,66.3,18.7z"/>
	<path class="st0" d="M12.2,29.4c-0.7-0.4-0.6-1.1-0.4-1.6c0.2-0.4,0.8-0.4,1.4-0.3c1.1,0.1,2.3,0.3,3.4-0.2c0.4-0.2,0.4-0.9,1-0.8
		c0.5,0.8-0.3,1-0.7,1.4c-0.3,0-0.5-0.1-0.8,0.1c-0.7,0-1.4,0.1-2.1,0l0,0c-0.3,0-0.7,0-1,0c-0.2,0-0.3,0-0.5,0.1
		c-0.1,0.1-0.2,0.2-0.3,0.3c-0.2,0.2-0.2,0.4,0,0.6C12.2,29.2,12.2,29.3,12.2,29.4z"/>
	<path class="st0" d="M73.8,40.6c-0.2-0.2-0.3-0.4-0.5-0.6c-0.2-0.4-0.4-0.8-0.3-1.2c0.2-0.4,0.7-0.2,1.1-0.2c1.3,0.1,2-0.3,2.2-1.4
		c0.3,0.2,0.8,0.4,0.5,0.9c-0.3,0.5-0.5,1.1-1.2,1.2c-0.2,0-0.4,0-0.6,0C73.7,39.3,73.7,39.3,73.8,40.6z"/>
	<path class="st0" d="M75.6,49.9c-0.3-0.3-0.8-0.8-0.5-1.1c0.3-0.3,1-0.4,1.6-0.2c0.8,0.3,1.5,0.3,2.3,0c0.5-0.2,0.9-0.5,1.1-1
		c0.7,0.4,0.6,0.7,0.1,1.2c-0.6,0.7-1.4,0.6-2.2,0.5c-0.5-0.1-1.1-0.1-1.6-0.1C75.7,49.1,75.5,49.3,75.6,49.9z"/>
	<path class="st0" d="M38.3,43.3c0.7,0.1,1-0.3,0.9-0.9c-0.2-1.5-0.5-2.9-0.5-4.4c0.4-0.1,0.5,0.1,0.5,0.5c0,1.5,0.2,3,0.5,4.5
		c0.1,0.5-0.4,0.9-0.7,1C38.8,44,38.5,43.6,38.3,43.3z"/>
	<path class="st0" d="M53.2,44.7c-0.3,0-0.5-0.2-0.5-0.5c-0.1-1.9-0.8-3.8-0.7-5.7c0.1,0,0.3-0.1,0.3,0
		C52.7,40.5,53.1,42.6,53.2,44.7z"/>
	<path class="st0" d="M12.4,19.6c-0.6-0.3-0.5-0.9-0.6-1.4l0,0c0.8,0.1,1.7,0,2.5,0c0.7,0,1.2-0.5,1.3-1.3c0.3,0.3,0.8,0.5,0.5,0.9
		c-0.3,0.4-0.5,1.2-1.4,0.9c-0.4-0.1-0.9,0-1.4,0C12.4,18.6,12.1,18.8,12.4,19.6z"/>
	<path class="st0" d="M71.9,25c-0.2-0.1-0.4-0.2-0.4-0.5c1.4-0.1,3,0.4,3.7-1.4c0.3,0.2,0.7,0.4,0.5,0.8c-0.3,0.5-0.7,1.1-1.5,1.1
		C73.3,25,72.6,24.9,71.9,25z"/>
	<path class="st0" d="M20.4,30.2c-0.3-0.1-0.5,0.3-0.9,0.1c0.4-0.8,1.4-1.2,1.7-2.1c1-1,1.7-2.1,2.1-3.5c0,1.2-0.7,2.2-1.1,3.3
		c0,0-0.1,0.1-0.1,0.1c-0.1,0.1-0.1,0.3-0.2,0.5l0,0c-0.2,0-0.2,0.2-0.2,0.4c0,0.1-0.1,0.1-0.1,0.1c-0.1,0.1-0.1,0.1-0.2,0.2
		c-0.1,0.1-0.2,0.2-0.4,0.4c-0.1,0.1-0.1,0.1-0.2,0.2l0,0c-0.1,0-0.1,0.1-0.2,0.1C20.5,30.1,20.5,30.1,20.4,30.2z"/>
	<path class="st0" d="M48.2,28.7c0.6-0.4,1.2-0.7,1.8-1.1c0.2,0,0.3,0,0.4-0.2l0,0c0.3,0.1,0.5-0.2,0.8-0.3c-0.6,1.4-1.9,1.8-3,2.4
		c-0.1,0-0.2,0-0.3-0.1c-0.2-0.1,0-0.2,0.1-0.3C48,29,48.1,28.8,48.2,28.7z"/>
	<path class="st0" d="M3,20.3c1.3,0.1,2-1,3.1-1.3c0.3,0.3-0.1,0.5-0.1,0.8c-0.8,0.5-1.6,1.2-2.7,1.1C2.9,20.8,3,20.5,3,20.3z"/>
	<path class="st0" d="M20.4,16.7c0.8-0.5,1.6-1,2.4-1.5c0.2,0.4,0.1,0.7-0.1,1c-0.9,0.3-1.4,1.2-2.4,1.1
		C20.2,17.1,20.5,16.9,20.4,16.7z"/>
	<path class="st0" d="M71.1,16.9c-0.7-0.3-0.6-1.1-0.8-1.7c-0.5-1.3-0.8-2.7-1.1-4.1c0.5,0,0.6,0.4,0.6,0.6
		C70,13.5,70.7,15.2,71.1,16.9z"/>
	<path class="st0" d="M69.9,32.3c0.4-0.5,0.7-0.9,1.1-1.4c0.7,0.1,1,0.5,0.3,1c-0.7,0.6-1.3,1.1-2,1.8C69.3,33.1,70,32.9,69.9,32.3z
		"/>
	<path class="st0" d="M54.7,44.3c0.3-0.7,0.1-1.5,0.5-2.1c0.1,0,0.1,0,0.2,0c0.1,0.3,0.7-0.1,0.5,0.5c-0.6,0.6-0.6,1.4-0.5,2.2
		c-0.2,0-0.5,0-0.7,0C54.7,44.7,54.7,44.5,54.7,44.3z"/>
	<path class="st0" d="M20.2,23.5c0.7,0.1,1.4-0.1,2.1-0.4c0.2-0.1,0.6-0.2,0.8,0c0.3,0.3-0.5,0.2-0.3,0.6l-0.1,0c0,0-0.1,0-0.1,0.1
		c-0.6,0.2-1.2,0.3-1.9,0.3C20.4,24,20.2,23.9,20.2,23.5z"/>
	<path class="st0" d="M76.7,52.9c0.8-0.1,1-0.5,1.1-1.2c0.5,0.2,0.6,0.6,0.5,1.1c-0.1,0.3-0.2,0.7-0.6,0.8
		C77.3,53.6,76.9,53.3,76.7,52.9z"/>
	<path class="st0" d="M29.2,23.5c1,0.5,1.4,0.3,1.6-0.7c0.4,0.3,0.8,0.5,0.4,1.1c-0.4,0.6-0.8,0.5-1.3,0.2
		C29.7,24,29.2,24,29.2,23.5z"/>
	<path class="st0" d="M18.2,41.3c0.5-0.2,1.2-0.2,1.1-1.1c0.9,0.8,0.9,0.9,0,1.5C18.8,42.1,18.6,41.5,18.2,41.3z"/>
	<path class="st0" d="M3.4,41.6C3.3,41.1,4,40.9,4,40.4c0.8,0.1,0.8,0.6,0.4,1.1c-0.3,0.4-0.6,0.8-1.2,0.9C3.2,42,3.5,41.9,3.4,41.6
		z"/>
	<path class="st0" d="M30.8,22.6c-0.5-0.3-0.8-0.6-0.1-1c0.3-0.2,0.4-0.6,0.8-0.8c0,0,0.1,0,0.1,0.1c0,0.2,0,0.3,0.2,0.4
		c0,0.2,0,0.3-0.2,0.4c0,0-0.1,0.1-0.1,0.1C31.4,22.2,31.2,22.4,30.8,22.6z"/>
	<path class="st0" d="M46.4,47c0.2-0.3,0.4-0.7,0.7-1c0.3-0.1,0.6-0.3,0.5,0.2c0,0.5-0.3,0.8-0.6,1.1C46.6,47.7,46.4,47.5,46.4,47z"
		/>
	<path class="st0" d="M66.6,34.6c0.6-0.2,1.1-0.6,1.3-1.2c0.3,0.2,0.8,0.3,0.4,0.8C67.8,34.6,67.4,35.3,66.6,34.6z"/>
	<path class="st0" d="M0.5,40.8c0.6,0.2,1.2,0.1,1.7,0.2c0.2,0,0.8,0,0.3,0.5c-0.6-0.1-1.2-0.1-1.8-0.2C0.2,41.2,0.5,40.9,0.5,40.8z
		"/>
	<path class="st0" d="M43,29.8c0.1-0.4,0.8-0.4,0.7-1c0.3,0.1,0.3,0.5,0.6,0.5c0,0,0,0.1,0,0.1c-0.1,0.2-0.2,0.4-0.3,0.5
		C43.5,30.3,43.1,30.5,43,29.8z"/>
	<path class="st0" d="M40.4,49.9c1.2,0.3,2.4,0.4,3.3,1.4C42.6,50.9,41.4,50.5,40.4,49.9z"/>
	<path class="st0" d="M64.4,20.2c1.3-0.3,1.4-0.2,1.2,1c0-0.5-0.3-0.5-0.7-0.5C64.7,20.6,64.2,20.8,64.4,20.2z"/>
	<path class="st0" d="M54.3,38.7c0-0.6,0.4-0.5,0.8-0.5c0.4,0,0.5,0.2,0.5,0.5C55.2,38.7,54.7,38.7,54.3,38.7z"/>
	<path class="st0" d="M55.2,42c-0.6-0.3-0.5-0.9-0.5-1.4c0.5-0.2,0.5,0.2,0.5,0.5C55.3,41.3,55.2,41.7,55.2,42z"/>
	<path class="st0" d="M37.5,41.6c0.3,0.1,0.5,0.3,0.6,0.7C37.6,42.3,37,42.5,37.5,41.6z"/>
	<path class="st0" d="M39.2,49.3c0.5,0,1-0.1,1.3,0.5C39.9,49.9,39.5,49.6,39.2,49.3z"/>
	<path class="st0" d="M44,12c-0.2,0.1-0.3,0.1-0.5,0.2c0.2-0.3,0.4-0.6,0.6-0.8C44.3,11.7,44.1,11.8,44,12z"/>
	<path class="st0" d="M43.7,51.3c0.4,0.1,0.9-0.2,0.9,0.5C44.3,51.7,43.9,51.6,43.7,51.3z"/>
	<path class="st0" d="M45.1,52c0.3,0,0.7-0.1,0.7,0.4C45.6,52.4,45.3,52.2,45.1,52z"/>
	<path class="st0" d="M38.7,37.7c-0.2,0-0.4-0.1-0.5-0.3C38.5,37.4,38.8,37.3,38.7,37.7z"/>
	<path class="st0" d="M33.6,31.4c0,0.1,0,0.2,0,0.3c-0.1,0-0.2,0-0.3,0C33.4,31.6,33.5,31.5,33.6,31.4z"/>
	<path class="st0" d="M31.4,12.2c-0.2-0.1-0.2-0.3-0.2-0.5C31.5,11.8,31.4,12,31.4,12.2z"/>
	<path class="st0" d="M38.2,42.6c0,0.2,0.1,0.3,0.1,0.5C38,42.9,38.1,42.7,38.2,42.6z"/>
	<path class="st0" d="M44.8,51.9c0.1,0,0.1,0.1,0.2,0.1C44.9,52,44.8,51.9,44.8,51.9z"/>
	<path class="st0" d="M4.7,18.1c0.1-1.1,1-1.8,1.8-2.5l0,0c0,0.4,0,0.7,0,1.1"/>
	<path class="st0" d="M11.7,18.1C11.7,18.1,11.7,18.1,11.7,18.1C11.7,18.1,11.7,18.1,11.7,18.1L11.7,18.1z"/>
	<path class="st0" d="M22.5,14.1c0,0-0.1,0.1-0.1,0.1c0,0-0.1,0-0.1-0.1C22.4,14.2,22.4,14.1,22.5,14.1
		C22.5,14.1,22.5,14.1,22.5,14.1z"/>
</g>
<path class="st2" d="M43.8,12.6c0.1-0.1,0.2-0.1,0.2-0.2c0.1,0.2,0,0.3-0.2,0.4C43.8,12.7,43.8,12.6,43.8,12.6z"/>
<path class="st0" d="M102.6,32.9l3-0.5V19.6l-3-0.5l0.2-3.2H114l0.1,3.2l-1.9,0.4V25l5.6-5.4l-2.3-0.4l0.1-3.2h11.1l0.2,3.2
	l-4.1,0.5l-3.6,3.5l5.8,9.4l2.6,0.4l-0.2,3.1h-11.8l-0.1-3.1l2.2-0.4l-3-5.1l-2.5,2.3v2.8l1.9,0.4L114,36h-11.2L102.6,32.9z"/>
<path class="st0" d="M136.6,36.4c-5.5,0-8.5-2.8-8.5-7.5c0-4.9,2.9-7.4,8.1-7.4c5.4,0,8.3,2.4,7.6,7.7h-9.6
	c-0.3,2.7,1.6,3.7,4.1,3.7c1.8,0,2.9-0.7,3-2l0-0.3l1.8-0.1l0.1,0.6C143.8,34.9,140.7,36.4,136.6,36.4z M134.4,27.6h3.8
	c0.3-3-0.8-3.4-1.8-3.4C135.3,24.2,134.2,24.6,134.4,27.6z"/>
<path class="st0" d="M145.4,33.2l2.1-0.4v-7.4l-2.1-0.4l0.2-3.1h8.1l0.1,0.2l-0.4,3.8l0.1,0c0.8-3,2.5-4.4,5.3-4.4
	c3.9,0,5.7,2.3,5.7,5.7v5.6l2.1,0.4l-0.2,2.8h-9.7l-0.1-2.8l1.5-0.3v-4.5c0-1.7-0.5-2.4-2.1-2.4c-1.6,0-2.2,1-2.2,2.5v4.4l1.5,0.3
	l-0.1,2.8h-9.7L145.4,33.2z"/>
<path class="st0" d="M167.5,29c0-4.5,2.9-7.5,9-7.5s9,3,9,7.5c0,4.4-2.9,7.4-9,7.4S167.5,33.5,167.5,29z M178.9,29
	c0-3.5-0.9-4.4-2.3-4.4c-1.5,0-2.3,1-2.3,4.4c0,3.3,0.8,4.5,2.3,4.5C178.1,33.5,178.9,32.3,178.9,29z"/>
<path class="st0" d="M190.6,34.8l-0.6,1.7l-3.1-0.4l0.7-5.8l3.4,0.4v0.6c0,1.4,1.5,2.2,3.5,2.2c1.1,0,1.8-0.3,1.8-0.9
	c0-0.6-0.2-0.9-3.9-2.1c-4.9-1.6-5.2-3.3-5.2-4.9c0-1.6,1-4,6-4c2.2,0,4.1,0.6,5.3,1.5l0.6-1.5l3.1,0.4l-0.5,4.9l-3.3-0.4l0-0.3
	c-0.1-1.3-1.7-2-3.6-2c-1,0-1.3,0.3-1.3,0.7c0,0.6,0.3,0.8,4.6,2.2c4.3,1.4,4.6,3.4,4.6,4.8c0,2.8-2.2,4.6-6.5,4.6
	C193.6,36.4,191.7,35.9,190.6,34.8z"/>
<path class="st0" d="M213.7,36H204l-0.2-2.8l2.1-0.4V17.9l-2.1-0.3l0.2-3.1h8.2v7.7l-0.4,3.8l0.1,0c0.8-3,2.5-4.4,5.3-4.4
	c3.9,0,5.7,2.3,5.7,5.7v5.6l2.1,0.4l-0.2,2.8h-9.7l-0.1-2.8l1.5-0.3v-4.5c0-1.7-0.5-2.4-2.1-2.4c-1.6,0-2.2,1-2.2,2.5v4.4l1.5,0.3
	L213.7,36z"/>
<path class="st0" d="M235,33.3c-0.7,1.9-2.1,3.1-4.8,3.1c-2.6,0-4.4-1.3-4.4-3.8c0-1.9,1.1-3.4,4.3-3.7c2.7-0.3,4.2-0.6,5-1.1
	l0.1-1.3c0.1-3.2-1.2-3.8-2.1-3.8c-0.5,0-0.8,0.2-0.8,0.3c0,0.3,0.7,0.8,0.7,2.4c0,2-1.8,2.8-3.1,2.8c-1.9,0-3.2-1.1-3.2-2.8
	c0-2.8,3.8-3.8,7.8-3.8c5.5,0,7.3,1.8,7,5.9l-0.2,2.7c-0.1,1.7,0,2.6,0.7,2.6c0.7,0,0.7-0.6,0.7-1.9l0-0.6l1.7-0.2l0.2,1.3
	c0.4,3.6-1.6,5.1-4.9,5.1C237.1,36.4,235.5,35.6,235,33.3z M234.9,31.1l0.1-1.9c-0.3,0.2-0.6,0.3-0.9,0.5c-1.3,0.6-1.8,1-1.8,2
	c0,0.8,0.5,1.2,1.2,1.2C234.2,32.9,234.8,32.3,234.9,31.1z"/>
<path class="st0" d="M263.1,36.4h-0.4c-8,0-11.2-4.6-11.2-10.1v-0.5c0-5.6,3.1-10.4,11-10.4h0.2c2.9,0,5.4,0.9,7,2l0.4-1.8l3.3,0.4
	l-0.8,8.1l-4.2-0.3l0.1-0.8c0.3-3-2.4-3.9-4.3-3.9c-3.7,0-5.4,2.6-5.4,6.5c0,3.9,1.7,6.6,5.3,6.6c2.5,0,4.9-1.2,4.6-4.4l-0.1-1
	l4.1-0.5l0.2,1.6C273.2,32.9,269.5,36.5,263.1,36.4z"/>
<path class="st0" d="M274.4,33.2l2.1-0.4v-7.4l-2.1-0.4l0.2-3.1h8.1l0.1,0.2l-0.4,4.4l0.1,0c0.9-4.1,3.4-5,5.3-5
	c2.9,0,4.2,1.7,4.2,3.7c0,2.2-1.2,3.7-3.4,3.7c-1.7,0-3.3-1-3.3-3c0-1,0.3-1.4,0.3-1.5c0-0.1-0.1-0.1-0.1-0.1
	c-0.9,0-2.7,2.5-2.7,5.6v2.8l4.6,0.5l-0.1,2.8h-12.8L274.4,33.2z"/>
<path class="st0" d="M301.4,36.4c-5.5,0-8.5-2.8-8.5-7.5c0-4.9,2.9-7.4,8.1-7.4c5.4,0,8.3,2.4,7.6,7.7h-9.6
	c-0.3,2.7,1.6,3.7,4.2,3.7c1.8,0,2.9-0.7,3-2l0-0.3l1.8-0.1l0.1,0.6C308.6,34.9,305.5,36.4,301.4,36.4z M299.2,27.6h3.8
	c0.3-3-0.8-3.4-1.8-3.4C300.1,24.2,299,24.6,299.2,27.6z"/>
<path class="st0" d="M318.8,36.4c-5.5,0-8.5-2.8-8.5-7.5c0-4.9,2.9-7.4,8.1-7.4c5.4,0,8.3,2.4,7.6,7.7h-9.6
	c-0.3,2.7,1.6,3.7,4.1,3.7c1.8,0,2.9-0.7,3-2l0-0.3l1.8-0.1l0.1,0.6C326,34.9,322.8,36.4,318.8,36.4z M316.5,27.6h3.8
	c0.3-3-0.8-3.4-1.8-3.4C317.5,24.2,316.4,24.6,316.5,27.6z"/>
<path class="st0" d="M336.9,36h-9.3l-0.2-2.8l2.1-0.4V17.9l-2.1-0.3l0.2-3.1h8.2V28l3.4-2.6l-1.8-0.3l0.1-3.1h10.8l0.2,3.1l-5.3,0.7
	l-0.9,0.7l3.9,6.4l2.3,0.4l-0.2,2.8h-10l-0.1-2.8l1.2-0.2l-1.8-3l-1.8,1.4v1.6l1.2,0.3L336.9,36z"/>
<path class="st0" d="M104.9,53.6v4.2h-1.4V46.1h3.9c2.8,0,4,1.6,4,3.7c0,2.1-1.2,3.8-3.9,3.8L104.9,53.6L104.9,53.6z M104.9,52.3
	h2.5c1.9,0,2.5-1.1,2.5-2.5c0-1.4-0.6-2.4-2.5-2.4h-2.5V52.3z"/>
<path class="st0" d="M118,50.5c-0.1-0.1-0.4-0.2-0.8-0.2c-1.4,0-2.3,1.4-2.3,2.6v5h-1.4V49h1.4v1.5h0.1c0.3-0.8,1.2-1.6,2.2-1.6
	c0.5,0,0.9,0.2,1.2,0.3L118,50.5z"/>
<path class="st0" d="M119,53.5c0-2.7,1.6-4.5,4-4.5c2.4,0,4,1.8,4,4.5c0,2.7-1.6,4.5-4,4.5C120.7,58,119,56.2,119,53.5z M125.7,53.5
	c0-1.8-0.8-3.3-2.6-3.3c-1.8,0-2.6,1.6-2.6,3.3c0,1.8,0.8,3.3,2.6,3.3C124.8,56.8,125.7,55.2,125.7,53.5z"/>
<path class="st0" d="M128.9,49.1h1.3v1.4h0.2c0.3-0.5,0.8-1.5,2.5-1.5c2.2,0,3.8,1.8,3.8,4.5c0,2.8-1.5,4.5-3.7,4.5
	c-1.7,0-2.3-1-2.6-1.5h-0.1v4.6h-1.4L128.9,49.1L128.9,49.1z M132.8,50.1c-1.7,0-2.5,1.3-2.5,3.3c0,2,0.9,3.4,2.5,3.4
	c1.7,0,2.6-1.5,2.6-3.4C135.3,51.6,134.5,50.1,132.8,50.1z"/>
<path class="st0" d="M138.3,53.5c0-2.7,1.6-4.6,4-4.6c1.8,0,3.8,1.1,3.8,4.4v0.6h-6.4c0.1,1.9,1.1,2.9,2.7,2.9
	c1.1,0,1.9-0.5,2.2-1.4l1.3,0.4c-0.4,1.3-1.7,2.2-3.5,2.2C139.9,58,138.3,56.2,138.3,53.5z M139.7,52.7h5c0-1.5-0.9-2.6-2.4-2.6
	C141,50.1,140,51.1,139.7,52.7z"/>
<path class="st0" d="M152.6,50.5c-0.1-0.1-0.4-0.2-0.8-0.2c-1.4,0-2.3,1.4-2.3,2.6v5h-1.4V49h1.4v1.5h0.1c0.3-0.8,1.2-1.6,2.2-1.6
	c0.5,0,0.9,0.2,1.2,0.3L152.6,50.5z"/>
<path class="st0" d="M158.7,50.3h-1.9v5c0,1.1,0.6,1.3,1.2,1.3c0.3,0,0.5,0,0.6-0.1l0.3,1.2c-0.2,0.1-0.5,0.2-1,0.2
	c-1.1,0-2.4-0.7-2.4-2.3v-5.4h-1.3v-1.3h1.3v-1.9h1.4v1.9h1.9V50.3z"/>
<path class="st0" d="M163.3,57.9L160,49h1.5l2.4,7h0.1l2.4-7h1.5l-3.8,10.2c-0.5,1.3-1.4,2-2.6,2c-0.5,0-0.9-0.1-1-0.2l0.3-1.2
	c1,0.2,1.6,0.1,2.1-1.2L163.3,57.9z"/>
<path class="st0" d="M176,46.1l4,9.5h0.1l4-9.5h1.6v11.7h-1.3v-8.8h-0.1l-3.6,8.7h-1.3l-3.6-8.7h-0.1v8.8h-1.3V46.1H176z"/>
<path class="st0" d="M193.7,56.6L193.7,56.6c-0.3,0.6-1.1,1.4-2.7,1.4c-1.7,0-3-1-3-2.7c0-2,1.8-2.4,3.4-2.6
	c1.2-0.2,2.3-0.1,2.3-0.7v0c0-1.5-0.8-1.9-1.8-1.9c-1.3,0-2,0.7-2.3,1.3l-1.3-0.5c0.7-1.6,2.2-2.1,3.5-2.1c1.1,0,3.3,0.3,3.3,3.1
	v5.8h-1.4L193.7,56.6L193.7,56.6z M193.7,53.4c-0.2,0.3-1.8,0.4-2.3,0.5c-1.1,0.1-2,0.5-2,1.5c0,0.9,0.8,1.4,1.9,1.4
	c1.6,0,2.5-1.1,2.5-2.2L193.7,53.4L193.7,53.4z"/>
<path class="st0" d="M198.9,57.8h-1.4V49h1.4v1.5h0.1c0.4-0.9,1.3-1.6,2.6-1.6c1.7,0,2.8,1.1,2.8,3.3v5.6h-1.4v-5.5
	c0-1.3-0.8-2.1-1.9-2.1c-1,0-2.3,0.8-2.3,2.4L198.9,57.8L198.9,57.8z"/>
<path class="st0" d="M212.2,56.6L212.2,56.6c-0.3,0.6-1.1,1.4-2.7,1.4c-1.7,0-3-1-3-2.7c0-2,1.8-2.4,3.4-2.6
	c1.2-0.2,2.3-0.1,2.3-0.7v0c0-1.5-0.8-1.9-1.8-1.9c-1.3,0-2,0.7-2.3,1.3l-1.3-0.5c0.7-1.6,2.2-2.1,3.5-2.1c1.1,0,3.3,0.3,3.3,3.1
	v5.8h-1.4L212.2,56.6L212.2,56.6z M212.2,53.4c-0.2,0.3-1.8,0.4-2.3,0.5c-1.1,0.1-2,0.5-2,1.5c0,0.9,0.8,1.4,1.9,1.4
	c1.6,0,2.5-1.1,2.5-2.2L212.2,53.4L212.2,53.4z"/>
<path class="st0" d="M223.3,49.1v8.8c0,2.3-1.8,3.2-3.9,3.2c-1.9,0-3-0.8-3.6-1.8l1.1-0.8c0.3,0.4,1,1.3,2.5,1.3
	c1.4,0,2.5-0.7,2.5-2.1v-1.6h-0.1c-0.3,0.5-0.9,1.5-2.6,1.5c-2.1,0-3.7-1.6-3.7-4.3c0-2.7,1.5-4.4,3.8-4.4c1.7,0,2.3,1,2.6,1.5h0.1
	V49L223.3,49.1L223.3,49.1z M219.5,56.5c1.6,0,2.5-1.2,2.5-3.1c0-1.9-0.9-3.2-2.5-3.2c-1.7,0-2.6,1.4-2.6,3.2
	C216.9,55.2,217.8,56.5,219.5,56.5z"/>
<path class="st0" d="M225.4,53.5c0-2.7,1.6-4.6,4-4.6c1.8,0,3.8,1.1,3.8,4.4v0.6h-6.4c0.1,1.9,1.1,2.9,2.7,2.9
	c1.1,0,1.9-0.5,2.2-1.4l1.3,0.4c-0.4,1.3-1.7,2.2-3.5,2.2C227,58,225.4,56.2,225.4,53.5z M226.8,52.7h5c0-1.5-0.9-2.6-2.4-2.6
	C228,50.1,227,51.1,226.8,52.7z"/>
<path class="st0" d="M241.6,57.8h-1.4v-5.7c0-1.3-0.6-1.8-1.6-1.8c-1,0-2,0.9-2,2.3v5.2h-1.4V49h1.4v1.5h0.1
	c0.3-0.8,1.2-1.6,2.3-1.6c1.1,0,1.9,0.7,2.3,1.6h0.1c0.3-0.7,1.3-1.6,2.5-1.6c1.5,0,2.7,1,2.7,3.1v5.7h-1.4V52c0-1.4-1-1.8-1.7-1.8
	c-1.2,0-1.9,0.8-1.9,2.1L241.6,57.8L241.6,57.8z"/>
<path class="st0" d="M248.6,53.5c0-2.7,1.6-4.6,4-4.6c1.8,0,3.8,1.1,3.8,4.4v0.6h-6.4c0.1,1.9,1.1,2.9,2.7,2.9
	c1.1,0,1.9-0.5,2.2-1.4l1.3,0.4c-0.4,1.3-1.7,2.2-3.5,2.2C250.1,58,248.6,56.2,248.6,53.5z M250,52.7h5c0-1.5-0.9-2.6-2.4-2.6
	C251.2,50.1,250.2,51.1,250,52.7z"/>
<path class="st0" d="M259.8,57.8h-1.4V49h1.4v1.5h0.1c0.4-0.9,1.3-1.6,2.6-1.6c1.7,0,2.8,1.1,2.8,3.3v5.6H264v-5.5
	c0-1.3-0.8-2.1-1.9-2.1c-1,0-2.3,0.8-2.3,2.4L259.8,57.8L259.8,57.8z"/>
<path class="st0" d="M271.4,50.3h-1.9v5c0,1.1,0.6,1.3,1.2,1.3c0.3,0,0.5,0,0.6-0.1l0.3,1.2c-0.2,0.1-0.5,0.2-1,0.2
	c-1.1,0-2.4-0.7-2.4-2.3v-5.4h-1.3v-1.3h1.3v-1.9h1.4v1.9h1.9V50.3z"/>
<path class="st0" d="M284.2,56.8c-0.8,0.8-2,1.1-3.1,1.1c-2.3,0-3.7-1.4-3.7-3.3c0-1.4,0.9-2.3,2.3-3.2c-0.8-1-1.4-1.8-1.4-2.6
	c0-1.8,1.1-2.8,2.9-2.8c1.7,0,2.8,1.1,2.8,2.4c0,1.1-0.6,1.9-1.6,2.6l-0.9,0.6l2.6,3.1c0.3-0.6,0.5-1.3,0.5-2.1h1.3
	c0,1.3-0.3,2.3-0.9,3.1l1.6,2h-1.6L284.2,56.8z M281.2,56.8c0.8,0,1.6-0.3,2.2-0.9l-2.8-3.4l-0.4,0.3c-1.1,0.8-1.4,1.6-1.4,1.9
	C278.8,55.8,279.7,56.8,281.2,56.8z M280.8,50.7l0.8-0.6c0.7-0.4,1.1-0.9,1.1-1.7c0-0.6-0.6-1.3-1.4-1.3c-0.9,0-1.5,0.8-1.5,1.6
	C279.8,49.3,280.2,50,280.8,50.7z"/>
<path class="st0" d="M296.7,47.2c-1.6,0-2.6,0.8-2.6,2c0,0.9,0.7,1.5,2.3,1.9l1.2,0.3c2.2,0.6,3.3,1.6,3.3,3.2
	c0,1.9-1.5,3.4-4.2,3.4c-2.5,0-4.1-1.3-4.2-3.2h1.5c0.1,1.3,1.4,1.9,2.8,1.9c1.6,0,2.9-0.8,2.9-2.1c0-1-0.8-1.5-2.3-1.9l-1.4-0.4
	c-1.8-0.5-3-1.5-3-3c0-2,1.8-3.3,4-3.3c2.3,0,3.9,1.3,4,3.2h-1.4C299.1,47.9,298.1,47.2,296.7,47.2z"/>
<path class="st0" d="M302.6,53.5c0-2.7,1.6-4.6,4-4.6c1.8,0,3.8,1.1,3.8,4.4v0.6h-6.4c0.1,1.9,1.1,2.9,2.7,2.9
	c1.1,0,1.9-0.5,2.2-1.4l1.3,0.4c-0.4,1.3-1.7,2.2-3.5,2.2C304.1,58,302.6,56.2,302.6,53.5z M304,52.7h5c0-1.5-0.9-2.6-2.4-2.6
	C305.2,50.1,304.2,51.1,304,52.7z"/>
<path class="st0" d="M318.1,51.7c-0.2-0.8-0.9-1.5-2.1-1.5c-1.6,0-2.6,1.3-2.6,3.3c0,2,1,3.4,2.6,3.4c1.1,0,1.9-0.6,2.1-1.5h1.4
	c-0.2,1.6-1.5,2.7-3.5,2.7c-2.5,0-4-1.9-4-4.6c0-2.6,1.6-4.5,4-4.5c1.9,0,3.3,1.1,3.5,2.7H318.1L318.1,51.7z"/>
<path class="st0" d="M327,49.1h1.4v8.8H327v-1.2h-0.1c-0.4,0.7-1.3,1.3-2.6,1.3c-1.3,0-2.8-1-2.8-3.3v-5.6h1.4v5.6
	c0,1.3,0.8,2,1.9,2c1,0,2.3-0.6,2.3-2.3L327,49.1L327,49.1z"/>
<path class="st0" d="M335.2,50.5c-0.1-0.1-0.4-0.2-0.8-0.2c-1.4,0-2.3,1.4-2.3,2.6v5h-1.4V49h1.4v1.5h0.1c0.3-0.8,1.2-1.6,2.2-1.6
	c0.5,0,0.9,0.2,1.2,0.3L335.2,50.5z"/>
<path class="st0" d="M336.9,46.9c0-0.5,0.4-0.9,1-0.9c0.6,0,1,0.5,1,0.9c0,0.5-0.4,0.9-1,0.9C337.3,47.8,336.9,47.4,336.9,46.9z
	 M338.6,57.8h-1.4V49h1.4V57.8z"/>
<path class="st0" d="M344.7,50.3h-1.9v5c0,1.1,0.6,1.3,1.2,1.3c0.3,0,0.5,0,0.6-0.1l0.3,1.2c-0.2,0.1-0.5,0.2-1,0.2
	c-1.1,0-2.4-0.7-2.4-2.3v-5.4h-1.3v-1.3h1.3v-1.9h1.4v1.9h1.9V50.3z"/>
<path class="st0" d="M349.4,57.9l-3.3-8.8h1.5l2.4,7h0.1l2.4-7h1.5l-3.8,10.2c-0.5,1.3-1.4,2-2.6,2c-0.5,0-0.9-0.1-1-0.2l0.3-1.2
	c1,0.2,1.6,0.1,2.1-1.2L349.4,57.9z"/>
</svg>
