<svg width="354" height="72" viewBox="0 0 354 72" fill="none" xmlns="http://www.w3.org/2000/svg">
<path d="M29.245 23.5085C28.5055 23.1121 28.3984 22.5272 28.9677 21.8552C29.3569 21.396 29.4736 21.0479 28.9336 20.5452C28.4568 20.1004 27.9752 19.6122 27.7514 18.9306C27.0362 16.7649 28.0871 15.566 30.0818 15.4451C30.471 15.421 30.8602 15.4403 31.3954 15.4403C30.6656 14.5025 30.1548 13.555 29.6342 12.6172C28.6368 10.8285 28.5444 8.77884 27.9752 6.86451C27.8438 6.41977 27.8973 5.93152 27.6152 5.53028C27.3232 4.89217 27.0703 5.23056 26.9097 5.59312C26.6859 6.11038 26.5351 6.65664 26.3405 7.18356C25.5864 9.26225 24.6474 11.2443 23.1441 12.912C23.4214 11.8775 24.049 10.9977 24.4674 10.0309C25.455 7.74433 26.0291 5.35142 26.3551 2.89083C26.4864 1.87565 26.7248 0.89432 27.2454 0C27.4838 0 27.7271 0 27.9654 0C27.9654 0.178864 27.9654 0.357728 27.9654 0.536592C27.9654 0.937827 28.3547 1.17954 28.3401 1.60978C28.2963 3.2824 29.2061 4.76165 29.2596 6.47294C29.3082 7.9667 30.2131 9.37827 30.5245 10.8962C30.5926 11.2201 30.7824 11.5681 31.1813 11.6745L31.191 11.6793C31.2105 11.8679 31.1813 12.0806 31.3954 12.1966L31.3905 12.1918C31.5073 13.2553 32.2954 13.9369 32.8841 14.7249C33.2101 15.1599 33.2198 15.4742 32.8792 15.8996C32.456 16.4265 31.95 16.702 31.2737 16.6924C30.7678 16.6827 30.2569 16.673 29.751 16.6972C28.8412 16.7455 28.7293 16.9824 29.2158 17.7655C29.8434 18.8774 30.6315 19.8732 31.5121 20.7966C31.1278 20.9368 31.0256 21.367 30.7045 21.5797C30.0672 22.0003 30.2861 22.329 30.8261 22.6142C30.831 22.6771 30.8359 22.7399 30.8359 22.8027C30.6413 23.8034 30.2131 23.9919 29.245 23.5085Z" fill="#088F74"/>
<path d="M12.1684 29.44C12.8252 30.402 13.1998 31.4994 13.6912 32.5436C15.0583 35.4682 16.8876 38.0448 19.3007 40.2105C19.4126 41.0178 18.7898 41.1049 18.2498 41.2644C16.3329 39.9592 14.8053 38.3107 13.6571 36.2949C12.543 34.3419 11.5311 32.3405 10.6262 30.2812C10.0959 29.0726 10.4607 27.8786 11.4776 26.9988C12.1879 26.3897 12.8252 25.9643 13.7934 26.351C14.1242 26.4815 14.562 26.3752 14.7177 26.0126C14.8783 25.6404 14.4015 25.6065 14.2409 25.4035C13.1998 24.0838 12.0614 22.8269 11.2392 21.3428C10.8548 20.6467 10.451 19.9602 10.1104 19.2448C9.51204 18.0024 10.3975 16.6343 11.8376 16.5328C12.183 16.5086 12.543 16.615 12.8884 16.4458C11.57 14.5943 10.704 12.5446 9.91098 10.4611C9.82827 10.2436 9.77476 10.0115 9.55582 9.87134C9.55096 9.53295 9.47798 9.22356 9.18121 8.91418C8.36873 10.7753 7.78005 12.6752 6.85568 14.4348C6.6708 14.7877 6.43241 15.1599 6.4762 15.6047C5.71237 16.2959 4.85611 16.9244 4.72475 18.0604C5.04099 18.1861 5.21127 18.6888 5.67345 18.4181C6.0578 18.1909 6.38376 17.9251 6.42755 17.4416C6.44701 17.2096 6.44701 16.9727 6.45187 16.7407C6.4616 16.3685 6.4762 15.9914 6.48593 15.6192C6.70973 15.5611 6.93352 15.4983 7.15732 15.4403C7.26435 15.6047 7.40544 15.7497 7.38111 15.9672C7.20597 19.3753 6.76811 22.7447 6.02374 26.0803C5.47398 28.5409 4.32581 30.5567 2.23867 32.0311C2.57923 32.3744 3.00736 32.3018 3.4209 32.2922C3.95606 32.2873 4.49123 32.2873 5.02639 32.2825C5.49831 32.2777 5.90698 32.4662 5.91671 32.9545C5.92644 33.6022 6.18429 34.3467 5.42533 34.9316C5.41074 34.6803 5.37182 34.5304 5.39614 34.3902C5.5275 33.5684 5.18694 33.2928 4.35987 33.3557C3.49874 33.4234 2.63275 33.3654 1.76676 33.3605C1.06131 32.998 1.13915 32.5387 1.60621 32.0408C1.81054 31.8233 2.00515 31.5864 2.2484 31.4172C4.81719 29.6431 5.12856 26.8489 5.57129 24.1273C5.80968 22.677 5.93131 21.2123 6.10645 19.7524C6.06266 19.4865 6.44701 19.2448 6.1697 18.9499C5.06531 19.2641 4.33068 20.405 3.05115 20.2793C2.17056 20.318 2.42841 19.8877 2.70086 19.4478C3.31873 18.4471 4.21392 17.6253 4.83179 16.6585C6.50539 14.0287 7.62437 11.1524 8.15467 8.05853C8.28603 7.3044 8.33954 6.49226 8.94282 5.84932C9.23959 5.53026 9.3077 5.61244 9.52177 5.85415C10.018 6.40525 10.2321 7.06269 10.4802 7.74431C11.3608 10.1711 12.5722 12.4528 13.8031 14.7152C14.2361 15.508 14.9318 16.1606 15.5059 16.876C15.4329 17.6592 14.9221 18.1668 14.2166 18.1619C13.3895 18.1523 12.5527 18.1716 11.7208 18.1184C11.6965 18.1087 11.6722 18.0942 11.643 18.0846C11.6673 18.0991 11.6868 18.1136 11.7111 18.1281C11.8181 18.6598 11.8035 19.2399 12.3581 19.5687C13.6182 22.0824 15.5253 24.1128 17.3595 26.1963C17.4519 26.3027 17.5103 26.438 17.5833 26.5589C16.9897 26.4573 17.0384 27.1486 16.6005 27.3275C15.4621 27.7964 14.3188 27.6707 13.1755 27.5354C12.6403 27.4725 12.003 27.4725 11.8181 27.8641C11.5846 28.333 11.5067 29.0388 12.1684 29.44Z" fill="#088F74"/>
<path d="M80.3434 55.8007C78.6893 56.9271 76.8649 57.193 74.9237 56.8787C74.2182 56.6999 73.7901 56.0473 73.1138 55.8152C72.7344 55.3221 72.1943 54.9596 71.6203 54.9402C69.8785 54.8726 68.1174 54.7662 66.3902 54.9547C62.7657 55.3463 59.1655 55.9893 55.5021 55.8007C55.1761 55.7862 54.8939 55.9941 54.5437 55.8394C53.0403 55.1723 51.3229 55.1094 49.8926 54.2151C49.7807 54.1474 49.5958 54.1958 49.445 54.1909C48.1995 53.6882 47.0027 53.0839 45.8399 52.4071C45.7864 51.9141 45.3972 52.0736 45.1102 52.0349C45.0518 52.0301 44.9934 52.0204 44.9399 51.9962C44.8767 51.9479 44.8134 51.9044 44.7502 51.856C44.6966 51.8512 44.6431 51.8319 44.5896 51.8077C44.5653 51.1164 44.0301 51.3823 43.6701 51.3195L43.675 51.3243C42.8138 50.3381 41.5732 50.2028 40.4153 49.8885L40.4251 49.8934C40.1915 49.2746 39.6418 49.381 39.1553 49.3471L39.165 49.352C39.0628 49.0619 38.7952 48.9701 38.5471 48.8685C36.207 47.9259 33.8279 47.1234 31.337 46.6207C29.2207 46.1952 27.1189 46.1662 25.0026 46.4853C23.2706 46.7463 21.6116 47.2636 20.1034 48.1482C19.145 48.709 18.0503 48.9169 17.1114 49.555C15.8367 50.4251 14.4453 51.1406 13.0879 51.8657C11.6624 52.6247 10.344 53.4948 9.01093 54.3795C8.02331 55.0321 7.13786 55.8781 5.9313 56.1585C8.02817 54.4665 10.2272 52.9147 12.509 51.479C14.2409 50.3865 15.9827 49.3181 17.8119 48.3803C20.1423 47.1862 22.5895 46.2968 25.0999 45.5716C29.0553 44.4308 32.923 45.0931 36.6838 46.3693C40.3813 47.6262 43.8988 49.3278 47.3579 51.1406C49.6007 52.3153 51.9408 53.403 54.3782 53.9444C57.3606 54.6067 60.4353 54.8919 63.5393 54.2393C65.5097 53.8236 67.5044 53.374 69.5283 53.3498C71.6689 53.3208 73.7901 53.5818 75.4978 55.0466C76.3638 55.7911 77.3319 55.6992 78.2855 55.5445C79.0153 55.4285 79.7353 55.2448 80.5088 55.1578C80.4553 55.385 80.4018 55.5929 80.3434 55.8007Z" fill="#088F74"/>
<path d="M54.6556 9.33958C55.1567 9.6248 55.7162 9.70215 56.2708 9.68764C56.7184 9.67314 56.733 9.89551 56.6941 10.2097C56.3681 10.3354 56.2951 10.8333 55.833 10.7705C55.254 10.698 55.2297 11.075 55.2297 11.5053C55.2443 12.8492 55.327 14.2027 55.2102 15.537C55.0983 16.8374 55.2637 18.1909 54.7967 19.4188C54.5534 20.0569 54.6945 20.3325 55.181 20.6225C57.1611 22.6529 59.4575 24.2578 61.8608 25.7564C64.5707 27.4435 67.3876 28.9083 70.3067 30.2087C70.5548 30.3198 71.0851 30.3102 70.9489 30.8564C70.5889 31.3253 70.2289 31.7991 69.8688 32.268C69.2656 32.5 69.1002 31.8571 68.7061 31.6734C66.8719 30.8081 65.101 29.8171 63.3107 28.8696C60.6105 27.4435 58.1342 25.7081 55.8184 23.755C52.7485 21.1591 49.8683 18.3746 47.7471 14.9037C47.2849 14.1496 46.8909 13.3761 46.6573 12.5253C46.4773 11.8582 46.4773 11.2249 47.1098 10.756C48.1898 11.573 48.3601 12.941 49.0412 14.0142C49.8148 15.2324 50.8024 16.2573 51.683 17.3691C52.2182 18.0459 52.8409 18.6502 53.4247 19.2883C53.8383 19.7427 54.135 19.4623 54.1058 19.0562C53.9793 17.3111 54.8551 15.6433 54.4075 13.8547C54.2226 13.1151 54.3734 12.2401 54.5729 11.4763C54.7091 10.9542 54.4707 10.9494 54.1642 10.8285C53.8966 10.7173 53.522 10.8623 53.3517 10.5336C53.1571 10.1662 52.4468 10.0309 52.6998 9.49911C53.0647 8.74015 53.3955 7.899 54.2567 7.51711C54.8307 7.26089 55.3902 7.18355 56.0665 7.28507C57.1563 7.44943 58.285 7.38175 59.3942 7.37691C59.8321 7.37208 60.1581 7.45426 60.2991 7.90384C60.2748 8.94318 60.0024 9.25257 59.2288 8.92868C57.7693 8.32441 56.2173 8.77399 54.7383 8.44043C54.3588 8.35341 53.9258 8.51294 53.9015 8.90934C53.8723 9.32025 54.3345 9.29608 54.6556 9.33958Z" fill="#088F74"/>
<path d="M66.6092 34.6078C64.8675 34.1872 63.1744 33.5297 61.6905 32.6064C58.3871 30.5471 55.1129 28.4055 52.3981 25.5679C50.6175 23.7067 48.7542 21.8891 47.3189 19.7476C46.6135 18.6985 45.8399 17.7075 45.1248 16.673C44.3464 15.74 44.0447 16.7745 43.7577 17.0984C42.2398 18.8097 40.8191 20.608 39.2185 22.2517C38.5325 22.9574 37.7152 23.5714 37.146 24.3642C35.7399 26.322 33.7209 27.5982 31.9646 29.1548C30.7532 30.2232 29.3034 31.0305 27.9557 31.9538C27.7757 31.9345 27.62 31.9828 27.5033 32.1327L27.4984 32.1423C27.1141 32.355 26.7297 32.5726 26.2481 32.8433C26.9633 31.3979 28.2185 30.5664 29.4055 29.8703C31.7116 28.5071 33.682 26.8006 35.6621 25.0313C38.6396 22.3822 41.0673 19.269 43.6458 16.2815C44.1274 15.7255 44.5118 15.0923 44.9302 14.488C45.1199 14.2124 45.2464 14.1689 45.5918 14.3671C46.3216 14.7829 46.633 15.5032 47.0514 16.1316C48.8758 18.8532 51.0067 21.3187 53.2739 23.6826C55.6821 26.2012 58.3822 28.3669 61.2819 30.2715C62.9409 31.364 64.8334 32.0505 66.7259 32.6983C67.1297 32.8385 67.7136 32.7901 67.8644 33.3847C67.6649 33.9987 67.2027 34.3709 66.6092 34.6078Z" fill="#088F74"/>
<path d="M80.6159 63.1825C80.3191 63.8303 79.7937 64.0382 79.0979 64.0768C78.0422 64.1348 77.0108 63.9076 75.9648 63.8738C75.274 63.8496 74.695 63.9995 74.1696 64.4636C73.5809 64.9808 72.963 65.0437 72.1846 64.7101C70.0829 63.811 67.7622 63.7626 65.5729 63.1874C64.7604 62.9746 63.9723 63.3807 63.2182 63.6369C62.0408 64.0382 60.8634 64.2847 59.618 64.2557C58.7471 64.2315 57.8665 64.1735 57.0054 64.2654C55.0496 64.4684 53.3955 63.5354 51.6197 63.0327C50.3742 62.6798 49.2942 61.9208 48.0001 61.7371C47.0465 61.2633 46.0881 60.7944 45.1345 60.3207C45.3145 60.2723 45.5432 60.4077 45.694 60.1902C43.4803 59.291 41.1937 59.5327 39.0239 60.0741C35.8907 60.8621 33.3852 62.8973 30.8505 64.802C30.5878 64.7246 30.3396 64.8358 29.9893 64.9905C30.1158 64.4442 30.2959 64.1107 30.6802 63.8883C32.5825 62.8055 34.2561 61.3504 36.2508 60.4174C37.9925 59.6052 39.7342 58.9043 41.6997 58.6384C44.4631 58.2662 46.8519 59.1605 49.2455 60.2095C51.9603 61.3987 54.6847 62.6314 57.6525 62.9601C59.6861 63.1874 61.7684 63.168 63.7339 62.3124C65.1691 61.6888 66.5702 61.4906 68.1757 62.09C70.0245 62.7764 72.0192 63.0713 73.9555 63.5161C74.2085 63.5741 74.5199 63.5886 74.6999 63.3179C75.5123 62.1045 76.7676 62.4042 77.8817 62.5009C78.6698 62.5686 79.4482 62.8393 80.2656 62.8103C80.5186 62.8006 80.6645 62.8973 80.6159 63.1825Z" fill="#088F74"/>
<path d="M73.8388 40.5538C74.3837 40.9308 74.5442 41.5786 74.8361 42.1007C75.96 44.1262 77.6628 45.5861 79.4191 47.0074C79.6283 47.1766 79.8521 47.3167 79.9737 47.5633C79.7742 48.0612 79.4288 48.3464 78.9131 48.564C78.1298 48.9023 77.4049 48.8347 76.6411 48.5785C76.0719 48.3899 75.3908 48.4818 75.0502 48.8057C74.7534 49.086 75.3081 49.5453 75.5854 49.8788C76.4027 50.3913 77.2736 50.8408 77.7893 51.711C77.7455 52.3781 77.4876 52.8664 76.7287 52.9244C75.7897 52.5038 75.0161 51.8705 74.3058 51.1454C73.4642 50.2849 73.4544 49.2842 73.8874 48.2787C74.1891 47.5778 74.9821 47.5536 75.6243 47.3844C75.8675 47.3216 76.14 47.3748 76.5681 47.3748C75.7654 46.3644 74.8945 45.6151 74.262 44.6676C73.5517 43.6089 72.9387 42.5068 72.3695 41.3707C71.8781 40.3894 71.3138 39.4516 70.8175 38.4751C70.6521 38.1512 70.1607 37.866 70.6229 37.3922C71.0948 36.9136 71.5278 36.4302 72.3111 36.6671C72.8998 36.846 73.4982 36.9813 74.2864 37.1892C73.6782 35.8985 73.1479 34.7624 72.6128 33.6312C72.4376 33.259 72.2868 32.8964 72.7441 32.6257C73.0117 32.471 73.1869 32.2825 73.4836 32.7563C74.4177 34.2355 75.0989 35.884 76.3638 37.1553C76.067 38.2962 75.4054 38.7409 74.1161 38.6008C73.7658 38.5621 73.2258 38.3784 73.0652 38.7699C72.929 39.1035 73.1139 39.5773 73.3523 39.9301C73.5031 40.1477 73.6782 40.3459 73.8388 40.5538Z" fill="#088F74"/>
<path d="M65.6945 17.5674C65.7237 17.4223 65.714 17.2531 65.787 17.1371C66.7357 15.5708 67.2757 13.8547 67.6016 12.0709C67.733 11.3651 68.1611 10.9252 68.6671 10.5143C68.9979 10.6013 68.9444 10.9591 69.1439 11.1331C69.5136 12.5012 69.8201 13.8886 70.2872 15.2228C70.4867 15.7884 70.438 16.5425 71.1337 16.8761C71.99 19.211 73.2841 21.2607 75.0988 22.9768C74.4663 24.8476 72.8073 24.3255 71.4354 24.4174C71.5035 24.7509 71.6884 24.8524 71.8635 24.9588C71.883 25.5534 72.4376 25.7564 72.7587 26.1238C73.2306 26.6604 73.2695 27.139 72.7003 27.5692C72.1895 27.956 71.7565 27.9076 71.3819 27.2792C71.0413 26.7039 70.4623 26.3075 70.1023 25.6984C69.6547 24.9394 69.4699 24.2433 69.8542 23.465C70.258 22.6432 71.0267 22.561 71.8392 22.6287C71.8586 22.8076 71.8781 22.9913 72.1262 22.9671C72.1895 22.9623 72.3111 22.8898 72.3062 22.8608C72.277 22.6674 72.0922 22.6094 71.9511 22.5127C71.7224 21.57 71.017 20.8884 70.5645 20.0666C69.8493 18.7759 69.2801 17.4417 69.0077 16.0011C68.9055 15.4693 68.6866 15.0198 68.453 14.5557C68.4141 14.3478 68.3703 14.1254 68.1271 14.0674C67.9373 14.0239 67.8352 14.2028 67.8303 14.3333C67.7963 15.3098 67.0276 15.9527 66.6919 16.7891C66.5508 17.1371 66.2978 17.6254 65.7286 17.5964C65.7237 17.5964 65.6945 17.5674 65.6945 17.5674Z" fill="#088F74"/>
<path d="M17.8655 71.0477C17.559 71.212 17.2525 71.3812 16.8779 71.5843C17.1406 70.7915 17.4763 70.2597 18.3325 70.0519C18.9066 69.9165 19.4223 69.4621 19.9283 69.1044C21.4024 68.065 23.1344 67.717 24.8372 67.3496C26.107 67.0788 27.3428 67.5719 28.4617 68.0602C29.5759 68.5436 30.724 68.5146 31.8527 68.7225C34.1491 69.1382 36.4162 68.7805 38.6882 68.4131C40.6781 68.094 42.6436 68.3406 44.5702 68.9013C44.9643 69.0173 45.4167 69.0657 45.4751 69.6071C45.008 70.0809 44.5361 70.5788 43.7772 70.2404C42.4344 69.6361 40.9894 69.5394 39.5883 69.6748C37.0925 69.9165 34.6064 70.2307 32.0863 70.1679C30.7775 70.134 29.425 70.3419 28.3352 69.3364C28.2623 69.2687 28.1066 69.2929 27.9898 69.2687C26.793 69.0415 25.601 68.7901 24.3945 68.6016C23.7182 68.4953 23.0469 68.4904 22.3706 68.7901C21.2468 69.2929 20.0743 69.6893 18.9358 70.1582C18.5126 70.3467 18.1136 70.6174 17.8655 71.0477Z" fill="#088F74"/>
<path d="M55.4291 42.1636C55.8086 41.4529 55.8961 40.6795 55.974 39.8963C56.0178 39.4564 55.8913 39.089 55.6091 38.7651C55.6334 38.3977 55.4875 38.1995 55.0885 38.2237C54.7382 38.243 54.3198 38.1367 54.3198 38.7023C53.4928 37.3294 53.4928 37.3294 55.1664 36.7783C56.2026 36.4399 56.6794 36.5608 56.8497 37.2085C56.9811 38.3542 57.0735 39.5096 57.2486 40.6456C57.4141 41.7236 57.8276 42.7727 57.7644 43.8845C57.6719 45.4121 57.3119 46.5046 55.395 46.3306C54.3831 46.2387 53.4247 45.7747 52.3884 45.939C51.8921 45.9149 51.6586 45.5136 51.6732 45.1559C51.7559 43.2077 51.104 41.3417 51.0991 39.4081C51.0991 38.8183 51.1721 38.2914 51.7073 37.8225C51.8338 38.0255 51.7121 38.3687 51.9943 38.4703C51.9311 40.4184 52.6122 42.2747 52.7046 44.1987C52.7192 44.5371 52.8603 44.6918 53.1863 44.7063C53.6776 44.9674 54.2079 44.8803 54.7334 44.8707C54.9766 44.8658 55.215 44.861 55.4583 44.8562C55.8037 44.6918 56.441 45.5233 56.4946 44.7015C56.5335 44.0247 56.5383 43.2222 55.9788 42.6325C56.1248 42.0862 55.5264 42.4149 55.4291 42.1636Z" fill="#088F74"/>
<path d="M49.1044 49.6807C48.939 49.6033 48.7298 50.4541 48.5838 49.6323C48.1898 47.4328 47.7325 45.2477 47.3481 43.0482C47.2459 42.4681 47.3043 41.859 47.2897 41.2644C47.3627 40.6456 47.0416 40.3701 46.5064 40.6263C45.4653 41.129 44.3804 40.868 43.3198 40.9018C42.4051 40.9308 42.1084 41.2547 42.2689 42.207C42.4392 43.198 42.6679 44.1746 42.8333 45.1704C42.9695 46.0019 42.6873 46.2629 41.9527 46.2967C41.5683 45.7408 41.724 45.0834 41.6364 44.4791C41.4808 43.3721 41.3835 42.2602 41.1937 41.1532C41.0088 40.0703 42.0938 39.292 43.3684 39.5144C44.9155 39.7851 46.4335 39.848 47.9368 39.3017C48.6276 39.0503 48.2287 39.6691 48.3795 39.8528C48.5011 42.2844 49.2358 44.6241 49.4839 47.0267C49.5666 47.8485 49.9753 48.9072 49.1044 49.6807Z" fill="#088F74"/>
<path d="M24.302 12.941C24.1658 13.2069 24.1415 13.4921 24.1853 13.787C24.2485 16.9486 22.7209 19.5155 20.8575 22.0631C21.3976 22.0631 21.7235 22.0631 22.0446 22.0631C22.5117 22.1018 22.969 21.9519 23.3047 21.6957C24.0296 21.1446 24.3993 21.9906 24.9588 22.0244C24.9734 22.0244 24.9978 22.1308 24.9832 22.1791C24.3896 24.1563 23.762 26.1238 22.5457 27.8351C22.4874 27.9221 22.3463 27.9463 22.2441 28.0043C22.6966 26.9408 23.3582 25.9449 23.3533 24.7122C22.9641 26.0513 22.249 27.1825 21.2905 28.1735C21.2613 28.1445 21.237 28.1106 21.2078 28.0865C22.0398 26.7813 22.6722 25.3842 23.1587 23.9146C23.2025 23.7792 23.3436 23.639 23.1539 23.5617C23.0468 23.5182 22.8863 23.6245 22.7501 23.6632C22.5993 23.3248 23.3193 23.4167 23.0614 23.0928C22.8717 22.8559 22.5555 22.9671 22.3073 23.0928C21.6554 23.4263 20.9743 23.61 20.2348 23.4989C19.7434 23.5085 19.5002 23.32 19.8651 22.8801C20.731 21.8359 21.2273 20.5742 21.9571 19.443C22.5652 18.5003 22.6284 17.2821 22.7355 16.1413C22.8863 15.8415 22.9933 15.5418 22.8036 15.1358C21.996 15.6578 21.1981 16.1703 20.4051 16.6779C19.8115 16.7214 19.6072 16.5908 20.0499 16.0349C20.8235 15.0584 21.636 14.1303 22.6674 13.4051C22.7744 13.9417 23.0079 13.8257 23.3144 13.5502C23.5966 13.2891 23.7961 12.8637 24.302 12.941ZM22.5409 14.1351C22.5165 14.1157 22.4971 14.0964 22.4728 14.0771C22.4484 14.1206 22.4144 14.1689 22.3998 14.2173C22.3949 14.2269 22.4387 14.2559 22.463 14.2753C22.4874 14.2269 22.5165 14.1786 22.5409 14.1351Z" fill="#088F74"/>
<path d="M61.5641 51.3291C60.7175 49.9659 60.197 48.4673 59.7834 46.9348C59.3261 45.238 59.3796 43.4687 59.0877 41.7429C58.932 40.8293 59.0926 39.906 59.2872 39.002C59.4672 38.1753 59.4575 37.3584 59.2872 36.5269C59.1364 35.8018 59.2045 35.1153 59.7494 34.5255C59.8807 34.3853 60.0364 34.1968 60.1629 34.25C60.3721 34.337 60.2505 34.6125 60.2991 34.8011C60.2943 35.0718 60.3235 35.3473 60.2748 35.6084C59.8613 37.8031 60.1386 40.0026 60.3575 42.178C60.6154 44.7885 61.2722 47.3312 62.3522 49.758C62.8047 50.7635 62.4738 51.2904 61.5641 51.3291Z" fill="#088F74"/>
<path d="M33.9447 31.9441C33.789 31.9151 33.6188 31.9006 33.5847 31.6976C33.5798 31.6106 33.5701 31.5236 33.5652 31.4366C33.7744 31.0305 34.1491 31.074 34.5091 31.0982C37.0195 31.2674 39.5153 31.4027 42.0208 30.9241C43.0377 30.7308 44.1177 30.8855 45.1734 30.8806C45.2853 30.8758 45.4021 30.8661 45.514 30.8613C48.219 30.9628 50.924 31.1175 53.6144 31.4317C53.9988 31.4752 54.1545 31.6106 54.1301 31.9731C53.6485 32.3357 53.1328 32.6306 52.5003 32.5532C49.2699 32.1617 46.0248 31.9683 42.7701 31.949C39.8267 31.9296 36.8881 31.9441 33.9447 31.9441Z" fill="#088F74"/>
<path d="M38.1531 42.5551C38.1336 42.4681 38.1141 42.3811 38.0947 42.2941C38.0363 41.9702 37.8222 41.772 37.5401 41.6366C37.3017 41.6173 37.0681 41.5931 36.6011 41.5496C37.5303 40.7084 38.265 39.877 37.7249 38.6588C37.2238 38.0158 36.4016 37.8611 35.4821 38.1512C35.0832 38.2769 34.9129 38.5282 34.9469 38.857C35.0005 39.3742 34.9761 39.8915 35.0832 40.4184C35.2778 41.3949 35.341 42.4149 35.0394 43.4011C34.4848 43.3769 34.295 43.0869 34.2804 42.5406C34.2658 41.9847 34.1588 41.4239 34.0226 40.8873C33.7453 39.7948 34.0809 38.7603 34.3972 37.7644C34.548 37.2907 35.0005 36.8169 35.7108 36.9571C36.5573 37.1263 37.506 36.6333 38.2698 37.3535C38.372 37.5324 38.5034 37.6581 38.7223 37.6774C38.7417 37.7548 38.7661 37.837 38.7855 37.9143C38.7855 39.3984 39.092 40.8535 39.2575 42.3231C39.3353 42.995 39.058 43.3141 38.3477 43.2609C38.3233 43.1787 38.2942 43.0965 38.2698 43.0143C38.2309 42.8693 38.192 42.7146 38.1531 42.5551Z" fill="#088F74"/>
<path d="M33.0155 24.6977C31.4976 26.3075 30.2472 28.1445 28.0774 29.1403C26.6908 29.7736 25.3821 30.6292 23.9615 31.2383C23.7085 31.3495 23.4896 31.4414 23.6501 31.8233C24.0199 32.7079 23.5528 33.2155 22.7744 33.5442C22.609 33.4234 22.429 33.3122 22.2733 33.172C21.2808 32.2729 21.3635 31.5961 22.5554 30.8855C23.6015 30.2667 24.7302 29.8268 25.8735 29.4207C27.8974 28.7004 29.4931 27.3372 31.1424 26.0368C31.7457 25.5582 32.276 24.9829 33.0155 24.6977Z" fill="#088F74"/>
<path d="M30.6656 41.9992C30.6705 39.5289 30.6851 37.0587 30.6656 34.5836C30.6608 33.9068 30.69 33.1672 30.4273 32.5774C30.1013 31.8378 30.5489 31.5091 30.9624 31.3109C31.4781 31.0643 31.2592 31.8329 31.5754 31.9683C31.7214 33.1575 32.0376 34.3322 31.7798 35.5601C31.6533 36.1595 31.4976 36.8411 31.6679 37.3971C32.1641 39.0262 31.483 40.5441 31.376 42.1104C31.3565 42.3569 31.2689 42.7098 30.9235 42.6615C30.544 42.6083 30.7192 42.2361 30.6656 41.9992Z" fill="#088F74"/>
<path d="M58.1244 22.2709C57.6525 21.889 57.4433 21.2993 57.4433 20.782C57.4238 18.2248 56.9081 15.6965 57.0492 13.1344C57.0881 12.3996 57.3752 11.6841 57.2292 10.9397L57.2195 10.9493C57.6622 10.8382 58.0368 10.8285 57.9541 11.4618C57.8714 13.8885 57.993 16.3008 58.4406 18.6985C58.5477 19.2786 58.572 19.8684 58.8055 20.4243C59.1607 21.2558 58.3822 21.6667 58.1244 22.2709Z" fill="#088F74"/>
<path d="M44.2345 29.2805C44.1858 26.6217 43.9377 23.9629 44.0544 21.2993C44.069 20.9464 44.0398 20.5887 44.2442 20.2696C44.3707 20.0714 44.502 19.7862 44.7404 19.8297C45.0372 19.8877 44.8572 20.2358 44.9448 20.4388C44.8377 23.6149 45.2853 26.7861 45.1053 29.9669C44.9107 30.0926 44.7161 30.2183 44.5118 30.3488C44.2928 30.0491 44.5945 29.614 44.2199 29.382C44.2247 29.353 44.2296 29.3192 44.2345 29.2805Z" fill="#088F74"/>
<path d="M43.855 12.7477C43.1301 14.7732 41.7678 16.3878 40.3132 17.8912C38.2406 20.0376 36.0367 22.0583 33.8912 24.137C33.6771 24.3449 33.4874 24.5914 33.1371 24.5576C33.2782 24.1322 33.6577 23.9098 33.9496 23.6197C35.3994 22.1598 36.8589 20.7144 38.2309 19.1771C38.6396 18.7179 39.1553 18.3505 39.6223 17.9444C40.9213 16.8084 41.7192 15.3388 42.4587 13.8161C42.736 13.2456 43.1593 12.7429 43.5193 12.2111C43.6798 12.1531 43.8404 12.0951 44.0009 12.0371C44.0107 12.1531 44.0253 12.274 44.035 12.39L44.0447 12.3803C43.9669 12.4431 43.8939 12.506 43.8161 12.5688C43.8015 12.5882 43.7625 12.622 43.7674 12.6317C43.7917 12.6704 43.8258 12.709 43.855 12.7477Z" fill="#088F74"/>
<path d="M3.76635 37.6726C4.09232 37.9627 3.79068 38.1512 3.64472 38.3397C3.30903 38.7845 2.94901 39.2099 2.58899 39.6594C2.82738 39.9543 3.14362 39.7851 3.42093 39.819C3.82473 39.7851 4.00961 39.9592 3.95609 40.3652C3.99501 40.8825 3.33336 41.0952 3.3966 41.6221C3.11443 41.4771 2.66683 42.2216 2.49655 41.4578C3.01712 40.9792 2.43817 40.955 2.22897 40.9405C1.64516 40.897 1.05161 40.9115 0.482392 40.7471C0.122373 40.7471 -0.111154 40.6408 0.0542607 40.225C0.185619 39.8915 0.360764 39.5724 0.749974 39.4903C1.97599 39.2437 2.83225 38.4026 3.76635 37.6726Z" fill="#088F74"/>
<path d="M42.9549 29.7543C41.7095 28.8164 40.7754 27.6079 39.9434 26.3075C39.7877 26.0658 39.6029 25.7951 39.8315 25.5969C40.0942 25.3745 40.4202 25.4519 40.717 25.6936C41.8262 26.5927 42.843 27.5741 43.6604 28.7488C43.7382 29.3047 43.0814 29.3482 42.9549 29.7543Z" fill="#088F74"/>
<path d="M64.595 23.8566C64.3274 24.0789 64.0598 24.3061 63.7922 24.5285C64.3809 23.3877 65.2761 22.4257 65.5972 21.1543C65.8648 19.9747 65.7432 19.8781 64.4247 20.2019C63.9041 20.1004 63.6268 19.9457 64.055 19.3753C64.5463 18.7179 65.0231 18.0556 65.6945 17.5673L65.7237 17.5963C65.6459 18.1571 65.0961 18.4616 64.882 19.0127C65.4415 19.0756 65.8745 18.9499 66.2686 18.6647C66.4486 18.8387 66.8135 18.8435 66.7843 19.2158C66.1518 20.811 65.7432 22.503 64.595 23.8566Z" fill="#088F74"/>
<path d="M55.2151 41.9847C55.2248 42.0427 55.2394 42.1055 55.2491 42.1636C54.7821 42.8017 55.0059 43.6138 54.7042 44.2954C54.4561 44.3003 54.2274 44.2713 54.1253 43.9957C53.668 42.7533 53.5025 41.5061 54.0669 40.2589C54.1301 40.1187 54.3442 39.9253 54.4415 39.9495C54.7334 40.0172 54.675 40.3169 54.6994 40.5441C54.6994 41.0807 54.6313 41.6463 55.2151 41.9847Z" fill="#088F74"/>
<path d="M20.4197 30.1942C20.1521 30.6196 19.8942 31.0837 19.3542 31.1755C19.0915 31.219 18.4639 31.891 18.566 30.8758C18.5758 30.7984 18.5028 30.7404 18.3812 30.7888C18.1866 30.8661 17.953 30.9435 17.8995 30.6244C17.846 30.3392 18.0844 30.0975 18.2693 30.083C19.6364 29.9573 20.2688 28.8019 21.2127 28.0913C21.2419 28.1203 21.2711 28.1493 21.2954 28.1783C20.9597 29.063 19.9867 29.4304 19.5634 30.2522C19.8796 30.4939 20.1278 30.1168 20.4197 30.1942Z" fill="#088F74"/>
<path d="M48.2093 28.7053C47.9903 28.6569 47.7374 28.7729 47.4601 28.5216C48.2823 27.5354 49.3429 26.994 50.5348 26.6217C50.6321 26.9746 50.1943 27.1438 50.3597 27.458L50.3694 27.4484C50.1456 27.3082 50.0678 27.4725 49.9851 27.6272C49.3915 27.9898 48.8028 28.3475 48.2093 28.7053Z" fill="#088F74"/>
<path d="M5.93132 56.1633C5.91672 56.347 5.85348 56.521 5.68806 56.608C4.56908 57.2026 3.69823 58.1211 2.68141 58.8559C2.46735 58.7931 2.09273 58.9719 2.05381 58.7109C1.99543 58.3725 2.34572 58.0921 2.60844 57.9761C3.7712 57.4637 4.81234 56.7386 5.93132 56.1633Z" fill="#088F74"/>
<path d="M46.4237 46.9929C46.0102 46.9784 45.7864 46.7947 45.9372 46.3741C46.1026 45.9149 46.4043 45.4991 46.8762 45.3831C47.0903 45.3299 47.0757 45.7505 47.0903 45.9825C46.8665 46.3161 46.6427 46.6545 46.4237 46.9929Z" fill="#088F74"/>
<path d="M16.1092 28.1058C16.3427 27.9221 16.62 28.043 16.873 27.9946C16.6541 28.2895 16.3719 28.1252 16.1092 28.1058Z" fill="#088F74"/>
<path d="M31.7408 21.3186C31.5657 21.2123 31.6046 21.0383 31.59 20.8836C31.77 20.9851 32.0717 21.0431 31.7408 21.3186Z" fill="#088F74"/>
<path d="M23.1052 12.9507C23.0517 13.1828 22.9495 13.3713 22.6819 13.41C22.7306 13.1779 22.8522 13.0087 23.1052 12.9507Z" fill="#088F74"/>
<path d="M12.1879 29.0243C12.0419 28.8164 12.0371 28.6086 12.1976 28.4007C12.1927 28.6086 12.1927 28.8164 12.1879 29.0243Z" fill="#088F74"/>
<path d="M21.8841 28.5506C21.957 28.3959 22.03 28.2412 22.0933 28.0913C22.2052 28.3282 22.1225 28.4732 21.8841 28.5506Z" fill="#088F74"/>
<path d="M54.5193 32.3647C54.5242 32.2729 54.529 32.181 54.5339 32.0892C54.6896 32.1859 54.6604 32.2777 54.5193 32.3647Z" fill="#088F74"/>
<path d="M21.6457 28.9566C21.6895 28.8164 21.6506 28.6327 21.8549 28.5844C21.7819 28.7052 21.8792 28.9228 21.6457 28.9566Z" fill="#088F74"/>
<path d="M12.4895 28.1155C12.616 27.9753 12.7863 28.0188 12.942 28.0139C12.8301 28.217 12.6501 28.1396 12.4895 28.1155Z" fill="#088F74"/>
<path d="M21.3294 29.2757C21.3975 29.208 21.4705 29.1403 21.5386 29.0726C21.5873 29.2612 21.4121 29.2225 21.3294 29.2757Z" fill="#088F74"/>
<path d="M31.4294 21.8262C31.444 21.7924 31.4684 21.7634 31.5024 21.7392L31.4976 21.8069L31.4294 21.8262Z" fill="#088F74"/>
<path d="M13.9831 28.0139L14.0171 28.0575L13.9685 28.0671L13.9831 28.0139Z" fill="#088F74"/>
<path d="M20.7991 29.8026C20.8527 29.7494 20.9062 29.6962 20.9548 29.6431C20.9013 29.7011 20.8527 29.7494 20.7991 29.8026Z" fill="#088F74"/>
<path d="M20.6046 29.9863C20.6581 29.9379 20.7067 29.8848 20.7602 29.8364C20.7067 29.8848 20.6532 29.9379 20.6046 29.9863Z" fill="#088F74"/>
<path d="M22.5992 23.7696C22.6187 23.7358 22.6479 23.7116 22.6868 23.6971L22.6625 23.7648L22.5992 23.7696Z" fill="#088F74"/>
<g opacity="0.37">
<path opacity="0.37" d="M81.2435 64.2412C80.7521 64.5457 80.3288 64.7681 79.638 64.6569C78.4655 64.4684 77.2443 64.565 76.0427 64.5602C75.5513 64.5554 75.1475 64.7294 74.7437 65.0533C74.1647 65.5222 73.5323 65.7011 72.7149 65.353C70.8418 64.5457 68.8033 64.2943 66.8184 63.8641C65.7383 63.6272 64.7945 63.7964 63.8117 64.2267C62.7657 64.6907 61.6273 64.8068 60.4937 64.7681C58.6985 64.7052 56.8546 65.1113 55.1275 64.5747C52.6852 63.8157 50.0921 63.3565 47.9903 61.7274C49.2845 61.9111 50.3694 62.67 51.61 63.0229C53.3858 63.5257 55.0399 64.4587 56.9957 64.2557C57.8568 64.1638 58.7374 64.2267 59.6083 64.246C60.8537 64.275 62.0311 64.0333 63.2084 63.6272C63.9625 63.371 64.7507 62.9649 65.5632 63.1776C67.7525 63.7529 70.0731 63.8012 72.1749 64.7004C72.9533 65.034 73.5712 64.9711 74.1598 64.4539C74.6853 63.9898 75.2642 63.8448 75.9551 63.8641C77.0011 63.8979 78.0325 64.13 79.0882 64.0671C79.7888 64.0285 80.3094 63.8206 80.6061 63.1728C80.7764 63.3807 81.0051 63.3662 81.2337 63.3372C81.2435 63.6417 81.2435 63.9414 81.2435 64.2412Z" fill="#088F74"/>
<path opacity="0.37" d="M81.2435 55.8056C80.4018 56.9899 79.1807 57.3041 77.8039 57.4443C76.753 57.5507 75.7702 57.6474 74.9237 56.8787C76.8649 57.1881 78.6893 56.9222 80.3435 55.8007C80.6451 55.7427 80.9419 55.6847 81.2435 55.6315C81.2435 55.6895 81.2435 55.7476 81.2435 55.8056Z" fill="#088F74"/>
<path opacity="0.37" d="M5.9313 56.1633C7.13785 55.8829 8.02331 55.0369 9.01093 54.3843C10.344 53.5045 11.6673 52.6344 13.0879 51.8706C14.4404 51.1454 15.8367 50.4252 17.1114 49.5598C18.0503 48.9217 19.1499 48.7139 20.1034 48.1531C21.6116 47.2685 23.2755 46.7512 25.0026 46.4901C27.1189 46.1663 29.2207 46.2001 31.337 46.6255C33.8231 47.1283 36.2021 47.9307 38.5471 48.8734C38.7952 48.9749 39.058 49.0668 39.165 49.3568C38.0849 49.1296 37.107 48.6075 36.0756 48.2498C32.8014 47.1234 29.4834 46.5143 25.9902 46.9881C22.5749 47.4521 19.6704 49.1344 16.654 50.5895C13.1803 52.2621 10.2175 54.7131 6.97244 56.7337C5.84859 57.4347 4.80259 58.2855 3.68361 59.0106C3.46468 59.1556 3.22629 59.3152 2.97817 59.3635C2.47219 59.465 2.51112 59.1847 2.68626 58.8608C3.70307 58.126 4.57393 57.2075 5.69291 56.6129C5.85832 56.521 5.92157 56.347 5.9313 56.1633Z" fill="#088F74"/>
<path opacity="0.37" d="M44.035 12.3852C44.2053 12.5012 44.6431 12.2305 44.468 12.8396C44.0545 14.3091 43.1593 15.4838 42.3127 16.6876C40.2159 19.6606 37.253 21.8069 34.7329 24.3739C33.5847 25.5437 32.4852 26.7764 31.2348 27.8303C29.4201 29.3627 27.3817 30.5954 25.1972 31.5623C24.8469 31.717 24.482 31.8426 24.0685 32.0022C24.2193 32.6403 24.5793 33.3364 23.8155 33.8682C23.3144 34.2162 23.0858 33.7521 22.7744 33.5394C23.5577 33.2107 24.0199 32.7031 23.6501 31.8185C23.4896 31.4366 23.7085 31.3447 23.9615 31.2335C25.3821 30.6244 26.6908 29.7688 28.0774 29.1355C30.2472 28.1397 31.4927 26.3075 33.0155 24.6929C33.0544 24.6446 33.0982 24.5962 33.1371 24.5479C33.4874 24.5817 33.6771 24.3352 33.8912 24.1273C36.0367 22.0535 38.2455 20.0328 40.3132 17.8816C41.763 16.3782 43.1301 14.7587 43.855 12.738C44.0155 12.6655 44.1712 12.5882 44.0447 12.3658L44.035 12.3852Z" fill="#088F74"/>
<path opacity="0.37" d="M27.9606 31.9441C29.3034 31.0208 30.7532 30.2183 31.9695 29.1451C33.7307 27.5934 35.7497 26.3123 37.1509 24.3545C37.7201 23.5617 38.5326 22.9526 39.2234 22.242C40.8192 20.5983 42.2398 18.8 43.7626 17.0887C44.0496 16.7649 44.3561 15.7352 45.1297 16.6633C41.9138 20.6564 38.3915 24.3787 34.621 27.8399C32.5193 29.7736 30.1694 31.451 27.659 32.8675C27.406 33.0125 27.1579 33.172 26.9049 33.3219C26.7735 32.7466 27.6736 32.6983 27.5082 32.1182L27.513 32.1085C27.7514 32.2922 27.8633 32.1375 27.9606 31.9441Z" fill="#088F74"/>
<path opacity="0.37" d="M17.8655 71.0477C18.1136 70.6126 18.5125 70.3419 18.9504 70.163C20.0888 69.6893 21.2613 69.2929 22.3852 68.795C23.0614 68.4953 23.7328 68.5001 24.4091 68.6064C25.6108 68.795 26.8076 69.0463 28.0044 69.2736C28.1212 69.2977 28.2769 69.2736 28.3498 69.3412C29.4396 70.3516 30.7921 70.1437 32.1008 70.1727C34.6161 70.2356 37.1022 69.9213 39.6029 69.6796C41.004 69.5443 42.449 69.6409 43.7917 70.2452C44.5507 70.5884 45.0226 70.0857 45.4897 69.6119C46.1319 69.6361 46.1708 69.9358 45.7621 70.3129C45.3486 70.69 44.9156 70.951 44.2539 70.7093C42.2738 69.989 40.2207 70.1099 38.1774 70.3709C34.4848 70.8398 30.8262 71.0574 27.2552 69.6361C24.8275 68.6741 22.5263 69.1479 20.2689 70.3226C19.3639 70.7915 18.5515 71.4054 17.5979 72C17.7147 71.5891 17.7925 71.3184 17.8655 71.0477Z" fill="#088F74"/>
<path opacity="0.37" d="M49.4499 54.191C49.6007 54.1958 49.7856 54.1426 49.8975 54.2151C51.3278 55.1095 53.0452 55.1723 54.5485 55.8394C54.894 55.9941 55.181 55.7862 55.507 55.8007C59.1753 55.9893 62.7755 55.3463 66.3951 54.9548C68.1174 54.7662 69.8834 54.8726 71.6251 54.9403C72.1992 54.9644 72.7392 55.327 73.1187 55.8152C70.8321 55.5155 68.5455 55.5494 66.254 55.7862C65.2226 55.8926 64.1815 55.7862 63.1355 55.9651C60.7516 56.3712 58.3336 56.4727 55.9205 56.3373C53.5804 56.202 51.4057 55.5058 49.4499 54.191Z" fill="#088F74"/>
<path opacity="0.37" d="M33.9447 31.9442C36.8832 31.9442 39.8266 31.9297 42.7652 31.949C46.02 31.9684 49.265 32.1617 52.4954 32.5533C53.1279 32.6306 53.6436 32.3358 54.1253 31.9732C54.2615 32.0119 54.3928 32.0505 54.5291 32.0892C54.5242 32.1811 54.5193 32.2729 54.5145 32.3648C54.3491 32.9449 53.8966 33.0029 53.3809 33.0029C51.6489 33.0029 49.9364 32.7031 48.2141 32.6596C46.0832 32.6016 43.9523 32.6355 41.8213 32.6355C39.6612 32.6306 37.5011 32.6258 35.3361 32.6306C34.762 32.6258 34.2269 32.5388 33.9447 31.9442Z" fill="#088F74"/>
<path opacity="0.37" d="M3.4209 32.2922C3.00737 32.297 2.57924 32.3744 2.23868 32.0312C4.32582 30.5616 5.47399 28.5457 6.02375 26.0803C6.76811 22.7447 7.20597 19.3753 7.38112 15.9673C8.28117 16.1606 7.90655 16.8857 7.87736 17.3498C7.76546 19.0514 7.62924 20.7579 7.35193 22.4402C6.97731 24.6832 6.93839 27.0181 5.74644 29.0775C5.07991 30.228 4.29663 31.2915 3.4209 32.2922Z" fill="#088F74"/>
<path opacity="0.37" d="M30.8456 64.7923C33.3804 62.8876 35.8859 60.8525 39.019 60.0645C41.184 59.5182 43.4755 59.2765 45.6891 60.1805C45.5383 60.398 45.3097 60.2579 45.1296 60.311C41.2862 59.7358 37.8757 61.012 34.6307 62.8296C33.4242 63.5064 32.5728 64.7246 31.2203 65.2177C31.0111 65.295 30.8359 65.5077 30.5732 65.4111C30.4613 65.1113 30.8262 65.0292 30.8456 64.7923Z" fill="#088F74"/>
<path opacity="0.37" d="M1.76192 33.3654C2.62791 33.3702 3.49877 33.4282 4.35503 33.3605C5.17724 33.2977 5.52266 33.5732 5.3913 34.3951C5.36698 34.5352 5.4059 34.6851 5.42049 34.9365C6.17945 34.3515 5.9216 33.6022 5.91187 32.9593C5.90701 32.4711 5.49834 32.2825 5.02155 32.2874C5.97025 32.007 6.64651 32.4179 6.63191 33.3364C6.60272 35.3716 6.07242 37.223 4.50098 38.6636C4.11177 39.0213 3.77608 39.4419 3.41606 39.8286C3.13875 39.7948 2.82252 39.964 2.58412 39.6691C2.94414 39.2244 3.2993 38.7941 3.63986 38.3494C3.78581 38.156 4.08745 37.9675 3.76149 37.6823C4.64207 36.7976 5.31346 35.8308 5.23075 34.4917C5.20156 34.0277 5.07507 33.8875 4.60802 33.902C3.63499 33.9358 2.63764 34.0228 1.73759 33.5104C1.71813 33.5007 1.70354 33.4621 1.7084 33.4427C1.71813 33.4089 1.74246 33.3847 1.76192 33.3654Z" fill="#088F74"/>
<path opacity="0.37" d="M61.5641 51.3291C62.4739 51.2905 62.7998 50.7636 62.3522 49.758C61.2722 47.3313 60.6154 44.7934 60.3575 42.1781C60.1435 40.0027 59.8613 37.8032 60.2748 35.6085C60.3235 35.3474 60.2943 35.0719 60.2991 34.8011C60.9559 35.0187 60.883 35.5746 60.81 36.0484C60.5473 37.7935 60.6981 39.529 60.7759 41.2789C60.844 42.8935 61.1992 44.4453 61.4181 46.0261C61.6079 47.3893 62.216 48.68 62.7755 49.9514C63.0042 50.4735 62.9993 50.9859 62.9944 51.5177C62.9944 51.9092 62.6928 52.1316 62.4155 52.2476C62.1284 52.3685 62.1382 51.9431 61.9679 51.7981C61.8171 51.6675 61.7003 51.4887 61.5641 51.3291Z" fill="#088F74"/>
<path opacity="0.37" d="M52.3884 45.9294C53.4295 45.765 54.388 46.2291 55.395 46.3209C57.3119 46.495 57.6719 45.4025 57.7644 43.8749C57.8325 42.763 57.4141 41.7188 57.2487 40.636C57.0735 39.4951 56.9811 38.3446 56.8497 37.1989C57.093 37.1795 57.3751 37.1264 57.3703 37.4938C57.3362 40.0269 58.2801 42.4439 58.2703 44.977C58.2655 46.5046 57.3654 47.2733 55.8475 46.9591C54.8599 46.756 53.9112 46.3693 52.8749 46.4273C52.5489 46.4515 52.3738 46.2678 52.3884 45.9294Z" fill="#088F74"/>
<path opacity="0.37" d="M30.6656 41.9992C30.7191 42.2361 30.544 42.6131 30.9235 42.6615C31.2689 42.7098 31.3565 42.3569 31.3759 42.1104C31.483 40.5441 32.1641 39.0262 31.6678 37.3971C31.5024 36.846 31.6532 36.1595 31.7797 35.5601C32.0376 34.3371 31.7214 33.1624 31.5754 31.9683C32.0181 32.1907 32.1981 32.5291 32.2857 33.23C32.4511 34.5256 32.5582 35.8115 32.2906 37.1167C32.0862 38.1222 32.5971 39.1181 32.31 40.1622C32.1008 40.9212 32.0619 41.7333 32.0814 42.5406C32.096 43.1691 31.5559 43.4881 31.1278 43.9232C31.0694 43.2029 30.0429 42.8017 30.6656 41.9992Z" fill="#088F74"/>
<path opacity="0.37" d="M55.1859 20.6274C54.6994 20.3373 54.5583 20.0618 54.8015 19.4237C55.2686 18.1958 55.1032 16.8374 55.2151 15.5418C55.327 14.2076 55.2442 12.854 55.2345 11.5101C55.2296 11.0799 55.2588 10.698 55.8378 10.7753C56.3 10.8334 56.373 10.3354 56.6989 10.2146C57.3265 10.1469 57.4433 10.4321 57.2244 10.9542L57.2341 10.9445C56.84 11.0122 56.5627 11.3651 56.1005 11.3216C55.6918 11.2829 55.7891 11.6793 55.7891 11.921C55.7794 13.1393 55.8281 14.3575 55.7745 15.5708C55.6967 17.2676 55.7502 18.9838 55.1859 20.6274Z" fill="#088F74"/>
<path opacity="0.37" d="M24.302 12.9411C23.7961 12.8637 23.5966 13.294 23.3047 13.555C22.9982 13.8306 22.7647 13.9466 22.6576 13.41L22.6819 13.4148C22.9495 13.3761 23.0517 13.1876 23.1052 12.9556L23.1441 12.9169C24.6475 11.2491 25.5864 9.27194 26.3405 7.18842C26.5351 6.65666 26.6859 6.1104 26.9097 5.59798C27.0703 5.23541 27.3233 4.89702 27.6152 5.53513C26.7395 8.10207 25.9027 10.6883 24.302 12.9411Z" fill="#088F74"/>
<path opacity="0.37" d="M22.0495 22.0583C21.7235 22.0583 21.3975 22.0583 20.8624 22.0583C22.7257 19.5107 24.2534 16.9438 24.1901 13.7822C24.4674 13.6759 24.7204 13.5937 24.7107 14.0529C24.6961 14.6185 24.8274 15.2228 24.6718 15.7449C24.0831 17.7076 23.6501 19.7427 22.3754 21.4395C22.2343 21.6232 22.1516 21.8504 22.0495 22.0583Z" fill="#088F74"/>
<path opacity="0.37" d="M41.9527 46.2919C42.6874 46.2533 42.9695 45.9971 42.8333 45.1656C42.6728 44.1697 42.4392 43.1932 42.269 42.2022C42.1035 41.2499 42.4003 40.926 43.3198 40.897C44.3804 40.8632 45.4653 41.1242 46.5065 40.6215C47.0416 40.3604 47.3627 40.636 47.2898 41.2596C46.1513 41.7865 44.9691 41.3031 43.8063 41.4046C43.1252 41.4626 42.7749 41.5545 42.9258 42.3763C43.1301 43.5026 43.096 44.6773 43.3685 45.7795C43.5193 46.3983 43.1885 46.5627 42.882 46.8237C42.3711 47.2684 42.5268 46.4611 42.23 46.4563C42.1181 46.4563 41.9868 46.437 41.9527 46.2919Z" fill="#088F74"/>
<path opacity="0.37" d="M58.1244 22.271C58.3823 21.6667 59.1607 21.2558 58.8104 20.4292C58.5769 19.8781 58.5525 19.2835 58.4455 18.7034C57.9979 16.3056 57.8763 13.8934 57.959 11.4666C58.2168 11.3361 58.5428 10.9736 58.4942 11.6745C58.3677 13.3955 58.5915 15.1116 58.6936 16.8277C58.7763 18.1668 58.8639 19.53 59.2969 20.8304C59.4575 21.3138 59.5012 21.8021 59.1169 22.2565C58.7617 22.6771 58.465 22.8994 58.1244 22.271Z" fill="#088F74"/>
<path opacity="0.37" d="M45.1053 29.9718C45.2853 26.7909 44.8377 23.6246 44.9447 20.4437C45.475 20.1778 45.4799 20.5259 45.4653 20.8884C45.368 23.2088 45.767 25.5196 45.6502 27.8448C45.6259 28.3717 45.6356 28.9035 45.7913 29.4352C45.9372 29.9235 45.8594 30.4359 45.5091 30.8565C45.3972 30.8613 45.2804 30.871 45.1685 30.8758C45.1491 30.5761 45.1296 30.2715 45.1053 29.9718Z" fill="#088F74"/>
<path opacity="0.37" d="M49.1045 49.6807C49.9753 48.9121 49.5667 47.8534 49.4791 47.0219C49.231 44.6193 48.5012 42.2796 48.3747 39.848C48.579 39.8093 48.8272 39.5628 48.8904 40.0172C49.1872 42.2119 49.4937 44.4018 49.7953 46.5965C49.8732 47.1524 49.8245 47.747 50.0142 48.2643C50.3645 49.2359 50.0191 49.9079 49.2893 50.517C49.0072 50.2705 49.1774 49.9466 49.1045 49.6807Z" fill="#088F74"/>
<path opacity="0.37" d="M29.2304 17.7704C28.7439 16.9872 28.8558 16.7455 29.7656 16.702C30.2716 16.6779 30.7824 16.6875 31.2884 16.6972C31.9646 16.7069 32.4706 16.4265 32.8939 15.9044C33.2344 15.4838 33.2247 15.1648 32.8987 14.7297C32.3101 13.9466 31.5219 13.2601 31.4052 12.1966C32.2128 13.1779 32.8793 14.2608 33.7307 15.2131C34.1929 15.7304 33.6966 16.6295 32.816 17.0066C32.3344 17.2145 31.8333 17.2241 31.3224 17.2145C30.5732 17.2 29.8678 17.3595 29.2304 17.7704Z" fill="#088F74"/>
<path opacity="0.37" d="M6.47136 15.6047C6.42757 15.1599 6.66596 14.7877 6.85084 14.4348C7.77521 12.6752 8.36876 10.7753 9.17637 8.91418C9.47801 9.22357 9.54612 9.53296 9.55098 9.87135C8.74824 11.7277 8.09145 13.642 7.15248 15.4355C6.92868 15.4935 6.70489 15.5563 6.48109 15.6143C6.48595 15.6192 6.47136 15.6047 6.47136 15.6047Z" fill="#088F74"/>
<path opacity="0.37" d="M35.0394 43.406C35.341 42.415 35.2778 41.395 35.0832 40.4233C34.9761 39.8964 35.0004 39.3791 34.9469 38.8619C34.9129 38.5331 35.0832 38.2818 35.4821 38.1561C36.4016 37.8709 37.2238 38.0256 37.7249 38.6637C37.2481 38.683 36.7714 38.741 36.2946 38.7168C35.628 38.683 35.4286 38.9392 35.4918 39.6015C35.6135 40.839 35.7983 42.0717 35.6913 43.319C35.6718 43.5172 35.8275 43.8555 35.448 43.8797C35.1464 43.9087 35.0637 43.667 35.0394 43.406Z" fill="#088F74"/>
<path opacity="0.37" d="M64.595 23.8566C65.7432 22.5079 66.1567 20.8111 66.7843 19.2206C67.3487 19.2545 67.4119 19.6219 67.266 20.0328C66.8476 21.1833 66.5557 22.387 65.9913 23.4844C65.8843 23.6922 65.7481 23.8904 65.5924 24.0645C65.4026 24.2868 65.174 24.5189 64.8626 24.4802C64.4783 24.4319 64.9307 23.963 64.595 23.8566Z" fill="#088F74"/>
<path opacity="0.37" d="M54.6556 9.33962C54.3394 9.29611 53.8772 9.31545 53.9015 8.90938C53.9258 8.51297 54.3588 8.35345 54.7383 8.44046C56.2173 8.77402 57.7644 8.32444 59.2288 8.92871C60.0072 9.24777 60.2797 8.93838 60.2991 7.90387C60.771 8.03439 60.8975 8.39212 60.7954 8.79819C60.6932 9.20426 60.4256 9.53782 60.0607 9.76986C59.9391 9.8472 59.8029 9.81336 59.7445 9.71668C59.2775 8.93355 58.5039 9.18976 57.8228 9.15108C57.0541 9.10758 56.2805 9.20909 55.507 9.00606C55.2199 8.92388 54.7529 8.78369 54.6556 9.33962Z" fill="#088F74"/>
<path opacity="0.37" d="M31.1959 11.6794C30.7921 11.573 30.6024 11.2249 30.5391 10.9011C30.2278 9.38313 29.318 7.97155 29.2742 6.4778C29.2207 4.76651 28.3061 3.28725 28.3547 1.61463C28.3644 1.18439 27.9752 0.93785 27.9801 0.541449C28.3158 0.425429 28.4374 0.541449 28.5104 0.894342C29.2499 4.5248 29.9943 8.15525 31.1959 11.6794Z" fill="#088F74"/>
<path opacity="0.37" d="M66.2686 18.6647C65.8746 18.9499 65.4416 19.0756 64.8821 19.0128C65.0913 18.4617 65.641 18.1571 65.7237 17.5964C66.293 17.6254 66.5508 17.1371 66.687 16.7891C67.0227 15.9479 67.7914 15.3098 67.8255 14.3333C67.8303 14.2028 67.9325 14.0239 68.1223 14.0674C68.3655 14.1254 68.4093 14.3478 68.4482 14.5557C68.0395 16.0929 67.1541 17.3788 66.2686 18.6647Z" fill="#088F74"/>
<path opacity="0.37" d="M12.1684 29.4401C11.5067 29.0388 11.5894 28.3379 11.8083 27.8641C11.9932 27.4677 12.6306 27.4677 13.1657 27.5354C14.309 27.6756 15.4523 27.8013 16.5908 27.3275C17.0286 27.1438 16.98 26.4574 17.5735 26.5589C18.0941 27.4049 17.267 27.5982 16.8632 27.9946C16.6102 28.043 16.3329 27.9221 16.0994 28.1058C15.3988 28.1348 14.6982 28.2122 14.0074 28.0575L13.9733 28.014C13.6279 28.014 13.2776 28.014 12.9322 28.014C12.7765 28.014 12.6062 27.9753 12.4797 28.1155C12.3824 28.2122 12.2851 28.304 12.1878 28.4007C12.0273 28.6037 12.0321 28.8116 12.1781 29.0243C12.183 29.1597 12.1732 29.2999 12.1684 29.4401Z" fill="#088F74"/>
<path opacity="0.37" d="M73.8387 40.5538C73.6782 40.346 73.503 40.1429 73.3522 39.9254C73.1138 39.5725 72.9289 39.0987 73.0652 38.7652C73.2209 38.3736 73.7609 38.5621 74.116 38.596C75.4053 38.7362 76.067 38.2914 76.3637 37.1506C76.6994 37.3826 77.1373 37.6002 76.8892 38.0981C76.6362 38.6057 76.3686 39.1519 75.7069 39.2631C75.5026 39.2969 75.2885 39.2679 75.0793 39.2679C73.7366 39.2631 73.7366 39.2631 73.8387 40.5538Z" fill="#088F74"/>
<path opacity="0.37" d="M75.5902 49.8837C75.3129 49.555 74.7583 49.0958 75.0551 48.8106C75.3956 48.4867 76.0767 48.3948 76.6459 48.5834C77.4098 48.8396 78.1347 48.9024 78.918 48.5689C79.4337 48.3465 79.7791 48.0661 79.9786 47.5682C80.6791 47.9259 80.5526 48.2933 80.0807 48.7961C79.4483 49.468 78.665 49.3907 77.9157 49.2891C77.3806 49.2166 76.8503 49.2311 76.3249 49.1586C75.7021 49.0668 75.4832 49.2843 75.5902 49.8837Z" fill="#088F74"/>
<path opacity="0.37" d="M38.3477 43.2658C39.058 43.3189 39.3353 42.9999 39.2575 42.3279C39.0921 40.8583 38.7855 39.4033 38.7855 37.9192C39.1796 37.8563 39.3061 38.0352 39.3061 38.4171C39.3061 39.9447 39.5396 41.4481 39.8413 42.9467C39.9483 43.4833 39.4715 43.8265 39.1212 43.9474C38.8391 44.0489 38.5326 43.5993 38.3477 43.2658Z" fill="#088F74"/>
<path opacity="0.37" d="M53.1815 44.7015C52.8555 44.687 52.7193 44.5323 52.6998 44.1939C52.6025 42.2651 51.9263 40.4136 51.9895 38.4654C52.0917 38.4316 52.262 38.3204 52.2863 38.4558C52.6852 40.5248 53.1182 42.589 53.1815 44.7015Z" fill="#088F74"/>
<path opacity="0.37" d="M12.3582 19.5687C11.8035 19.2351 11.8181 18.655 11.7111 18.1281L11.7208 18.1184C12.5528 18.1765 13.3896 18.1571 14.2166 18.162C14.9221 18.1668 15.4329 17.6592 15.5059 16.8761C15.7783 17.1323 16.3476 17.3353 15.9681 17.7994C15.6372 18.2006 15.5108 18.9934 14.6058 18.6695C14.1874 18.5197 13.662 18.6889 13.195 18.6405C12.4263 18.5535 12.0711 18.7614 12.3582 19.5687Z" fill="#088F74"/>
<path opacity="0.37" d="M71.8636 24.9636C71.6835 24.8573 71.5035 24.7558 71.4354 24.4222C72.8074 24.3255 74.4713 24.8525 75.0989 22.9816C75.3957 23.175 75.7995 23.3925 75.5513 23.7938C75.2205 24.3304 74.8216 24.8815 74.0918 24.9201C73.3474 24.954 72.6031 24.9491 71.8636 24.9636Z" fill="#088F74"/>
<path opacity="0.37" d="M20.4196 30.1942C20.1326 30.1168 19.8796 30.4987 19.5634 30.2522C19.9867 29.4352 20.9597 29.0678 21.2954 28.1783C22.2538 27.1873 22.9641 26.0561 23.3582 24.7171C23.3679 25.9449 22.7014 26.9408 22.2489 28.0091C22.2003 28.0381 22.1468 28.072 22.103 28.0961C22.0349 28.246 21.9668 28.4007 21.8938 28.5554L21.8646 28.5892C21.6603 28.6376 21.6992 28.8213 21.6554 28.9615C21.6359 29.0146 21.597 29.0533 21.5484 29.0775C21.4802 29.1452 21.4073 29.2128 21.3392 29.2805C21.2127 29.4062 21.091 29.5271 20.9645 29.6527C20.911 29.7059 20.8575 29.7591 20.8089 29.8123L20.7699 29.8461C20.7164 29.8945 20.6678 29.9476 20.6143 29.996C20.5413 30.054 20.478 30.1217 20.4196 30.1942Z" fill="#088F74"/>
<path opacity="0.37" d="M48.2093 28.7053C48.798 28.3475 49.3915 27.9898 49.9802 27.6321C50.1407 27.6418 50.3159 27.6804 50.3645 27.4532L50.3548 27.4629C50.671 27.5789 50.8073 27.2454 51.1527 27.1632C50.5105 28.5216 49.2504 28.9712 48.1071 29.5658C48.039 29.5996 47.8784 29.5319 47.8006 29.4691C47.6255 29.3192 47.8055 29.2274 47.8882 29.1258C48.0049 28.9857 48.1071 28.8455 48.2093 28.7053Z" fill="#088F74"/>
<path opacity="0.37" d="M3.04143 20.2842C4.32095 20.4099 5.05559 19.269 6.15997 18.9548C6.44215 19.2497 6.05294 19.4865 6.09673 19.7572C5.26479 20.2648 4.53015 20.9609 3.40144 20.8304C2.91007 20.7724 3.04143 20.5452 3.04143 20.2842Z" fill="#088F74"/>
<path opacity="0.37" d="M20.4002 16.6827C21.1981 16.1703 21.9911 15.6578 22.7987 15.1406C22.9885 15.5418 22.8814 15.8464 22.7306 16.1461C21.8743 16.4023 21.3586 17.3401 20.2932 17.2628C20.1667 17.0936 20.5218 16.9002 20.4002 16.6827Z" fill="#088F74"/>
<path opacity="0.37" d="M71.1338 16.8761C70.4381 16.5425 70.4867 15.7836 70.2873 15.2228C69.8202 13.8886 69.5137 12.5012 69.144 11.1331C69.6013 11.1041 69.7375 11.544 69.7716 11.7712C70.0148 13.5309 70.73 15.16 71.1338 16.8761Z" fill="#088F74"/>
<path opacity="0.37" d="M69.8688 32.2729C70.2288 31.804 70.5889 31.3302 70.9489 30.8613C71.6932 31.0112 71.9024 31.3254 71.2651 31.891C70.6083 32.4711 69.9467 33.0367 69.2461 33.6506C69.2899 33.056 69.9905 32.8578 69.8688 32.2729Z" fill="#088F74"/>
<path opacity="0.37" d="M54.7043 44.2954C55.0059 43.6138 54.7821 42.8017 55.2491 42.1636C55.3124 42.1636 55.3708 42.1636 55.434 42.1636C55.5313 42.415 56.1297 42.0911 55.9741 42.6277C55.3805 43.2754 55.4097 44.0634 55.4535 44.8514C55.2102 44.8562 54.9718 44.861 54.7286 44.8659C54.7188 44.6773 54.7091 44.484 54.7043 44.2954Z" fill="#088F74"/>
<path opacity="0.37" d="M20.2299 23.4989C20.9694 23.6101 21.6457 23.4215 22.3025 23.0928C22.5506 22.9671 22.8668 22.8559 23.0566 23.0928C23.3144 23.4167 22.5944 23.3249 22.7452 23.6633L22.6917 23.7019C22.6528 23.7164 22.6236 23.7406 22.6041 23.7744C21.996 23.9291 21.3927 24.0548 20.7505 24.0258C20.3613 24.0065 20.191 23.8808 20.2299 23.4989Z" fill="#088F74"/>
<path opacity="0.37" d="M76.7384 52.9244C77.4973 52.8712 77.7503 52.383 77.799 51.711C78.3049 51.9044 78.4314 52.3056 78.3098 52.7745C78.2222 53.1081 78.0617 53.5238 77.6919 53.5673C77.2687 53.6157 76.9378 53.316 76.7384 52.9244Z" fill="#088F74"/>
<path opacity="0.37" d="M29.245 23.5086C30.2132 23.9871 30.6413 23.7986 30.8554 22.8028C31.2738 23.0686 31.6533 23.3152 31.2738 23.9146C30.904 24.4996 30.4808 24.4029 29.9894 24.137C29.6975 23.9775 29.2353 24.021 29.245 23.5086Z" fill="#088F74"/>
<path opacity="0.37" d="M18.245 41.2644C18.7899 41.1001 19.4077 41.0179 19.2958 40.2106C20.2105 41.0276 20.2153 41.0807 19.325 41.6947C18.7509 42.0862 18.5612 41.5061 18.245 41.2644Z" fill="#088F74"/>
<path opacity="0.37" d="M3.39659 41.6221C3.33335 41.0952 3.99501 40.8825 3.95608 40.3652C4.79775 40.4716 4.71018 40.984 4.3453 41.4433C4.05825 41.8058 3.79067 42.2892 3.1582 42.3327C3.16793 42.0475 3.52795 41.9025 3.39659 41.6221Z" fill="#088F74"/>
<path opacity="0.37" d="M30.8408 22.6142C30.3007 22.329 30.0818 22.0003 30.7191 21.5797C31.0402 21.367 31.1424 20.9416 31.5268 20.7966C31.5705 20.8111 31.59 20.8352 31.59 20.8787C31.6046 21.0383 31.5657 21.2123 31.7408 21.3138C31.736 21.4975 31.6922 21.6571 31.5024 21.7392C31.4732 21.7634 31.4489 21.7924 31.4295 21.8262C31.3808 22.1985 31.1667 22.4499 30.8408 22.6142Z" fill="#088F74"/>
<path opacity="0.37" d="M46.4237 46.9929C46.6475 46.6545 46.8665 46.3161 47.0903 45.9825C47.3579 45.8714 47.6644 45.6587 47.6303 46.2243C47.6011 46.6932 47.3724 47.0606 47.0222 47.3409C46.5502 47.7083 46.3946 47.486 46.4237 46.9929Z" fill="#088F74"/>
<path opacity="0.37" d="M66.6092 34.6078C67.2027 34.3709 67.6649 33.9987 67.8741 33.3751C68.1271 33.5636 68.6671 33.6506 68.2487 34.1292C67.8206 34.6078 67.4071 35.3087 66.6092 34.6078Z" fill="#088F74"/>
<path opacity="0.37" d="M0.482361 40.752C1.05645 40.9115 1.64513 40.9018 2.22894 40.9453C2.43814 40.9598 3.01709 40.984 2.49652 41.4626C1.87865 41.3949 1.26565 41.3224 0.647775 41.2644C0.180723 41.2161 0.458035 40.9453 0.482361 40.752Z" fill="#088F74"/>
<path opacity="0.37" d="M42.9549 29.7543C43.0863 29.3482 43.7382 29.3047 43.6652 28.7536C43.9231 28.86 43.9231 29.237 44.2345 29.2805C44.2296 29.3144 44.2247 29.3482 44.2247 29.3869C44.1177 29.5609 44.035 29.7591 43.8988 29.909C43.5144 30.3344 43.1495 30.4987 42.9549 29.7543Z" fill="#088F74"/>
<path opacity="0.37" d="M40.4202 49.8886C41.5781 50.2028 42.8187 50.3382 43.6798 51.3243C42.5706 50.8989 41.4419 50.517 40.4202 49.8886Z" fill="#088F74"/>
<path opacity="0.37" d="M64.4248 20.2068C65.7432 19.8829 65.8648 19.9796 65.5973 21.1591C65.6167 20.6806 65.3394 20.6274 64.9356 20.6225C64.7361 20.6177 64.1621 20.8498 64.4248 20.2068Z" fill="#088F74"/>
<path opacity="0.37" d="M54.3199 38.6975C54.3199 38.1319 54.7383 38.2382 55.0886 38.2189C55.4875 38.1947 55.6286 38.3929 55.6091 38.7603C55.1761 38.741 54.748 38.7217 54.3199 38.6975Z" fill="#088F74"/>
<path opacity="0.37" d="M55.2151 41.9847C54.6313 41.6463 54.6994 41.0807 54.6994 40.5393C55.1616 40.3846 55.181 40.7617 55.2151 41.0131C55.2637 41.3321 55.2199 41.6608 55.2151 41.9847Z" fill="#088F74"/>
<path opacity="0.37" d="M37.54 41.6367C37.8222 41.7768 38.0363 41.9702 38.0947 42.2941C37.6276 42.3086 36.9951 42.4633 37.54 41.6367Z" fill="#088F74"/>
<path opacity="0.37" d="M39.1602 49.3471C39.6467 49.3809 40.1964 49.2746 40.43 49.8934C39.9288 49.8885 39.5299 49.6468 39.1602 49.3471Z" fill="#088F74"/>
<path opacity="0.37" d="M44.0009 12.0322C43.8404 12.0902 43.6798 12.1482 43.5193 12.2063C43.7139 11.9307 43.9085 11.6552 44.1128 11.3651C44.3026 11.6552 44.0788 11.8292 44.0009 12.0322Z" fill="#088F74"/>
<path opacity="0.37" d="M43.6798 51.3195C44.0399 51.3823 44.5799 51.1164 44.5993 51.8077C44.2637 51.6965 43.9426 51.5612 43.6798 51.3195Z" fill="#088F74"/>
<path opacity="0.37" d="M45.1151 52.0349C45.4021 52.0688 45.7913 51.9141 45.8448 52.4072C45.5675 52.3588 45.3145 52.2476 45.1151 52.0349Z" fill="#088F74"/>
<path opacity="0.37" d="M38.7272 37.6823C38.5131 37.663 38.3769 37.5325 38.2747 37.3584C38.4888 37.3778 38.8002 37.2666 38.7272 37.6823Z" fill="#088F74"/>
<path opacity="0.37" d="M33.5604 31.4317C33.5652 31.5187 33.575 31.6058 33.5798 31.6928C33.4971 31.6831 33.4096 31.6783 33.3268 31.6686C33.4096 31.5913 33.4874 31.5139 33.5604 31.4317Z" fill="#088F74"/>
<path opacity="0.37" d="M31.41 12.2015C31.1959 12.0854 31.2251 11.8776 31.2056 11.6842C31.4732 11.7809 31.3613 12.0178 31.41 12.2015Z" fill="#088F74"/>
<path opacity="0.37" d="M38.1531 42.5551C38.192 42.7098 38.2309 42.8645 38.2747 43.0192C38.046 42.9129 38.119 42.7292 38.1531 42.5551Z" fill="#088F74"/>
<path opacity="0.37" d="M44.7551 51.856C44.8183 51.9044 44.8816 51.9479 44.9448 51.9962C44.8816 51.9527 44.8183 51.9044 44.7551 51.856Z" fill="#088F74"/>
<path opacity="0.37" d="M4.71988 18.0604C4.85124 16.9244 5.7075 16.296 6.47133 15.6047L6.48592 15.6192C6.47619 15.9914 6.46159 16.3685 6.45186 16.7407" fill="#088F74"/>
<path opacity="0.37" d="M11.7111 18.1281C11.6868 18.1136 11.6673 18.0991 11.643 18.0846C11.6673 18.0943 11.6917 18.1088 11.7208 18.1185L11.7111 18.1281Z" fill="#088F74"/>
<path opacity="0.37" d="M22.5409 14.1351C22.5165 14.1835 22.4874 14.227 22.463 14.2753C22.4436 14.256 22.3998 14.227 22.3998 14.2173C22.4192 14.169 22.4484 14.1255 22.4728 14.0771C22.4971 14.0965 22.5165 14.1158 22.5409 14.1351Z" fill="#088F74"/>
</g>
<path d="M43.8161 12.564C43.8939 12.5011 43.9669 12.4383 44.0447 12.3755C44.1712 12.593 44.0155 12.6703 43.855 12.7477C43.8453 12.6848 43.8307 12.6268 43.8161 12.564Z" fill="white"/>
<path d="M102.644 32.9158L105.626 32.4324V19.6025L102.644 19.1191L102.834 15.9672H113.984L114.121 19.1191L112.223 19.5252V24.9926L117.813 19.5493L115.478 19.1191L115.614 15.9672H126.736L126.926 19.1191L122.858 19.6025L119.249 23.0541L124.999 32.4855L127.602 32.9158L127.412 36.0435H115.639L115.502 32.9158L117.672 32.5097L114.69 27.4435L112.223 29.7881V32.5387L114.15 32.9158L114.014 36.0435H102.834L102.644 32.9158Z" fill="#087761"/>
<path d="M136.612 36.4447C131.134 36.4447 128.147 33.6941 128.147 28.9228C128.147 24.0161 131.051 21.5362 136.257 21.5362C141.628 21.5362 144.586 23.9339 143.905 29.2467H134.33C134.058 31.9683 135.902 32.9641 138.48 32.9641C140.242 32.9641 141.409 32.2922 141.516 30.9144L141.545 30.5905L143.389 30.5084L143.443 31.103C143.798 34.8833 140.679 36.4447 136.612 36.4447ZM134.36 27.632H138.184C138.48 24.5865 137.342 24.2095 136.34 24.2095C135.308 24.2095 134.194 24.5575 134.36 27.632Z" fill="#087761"/>
<path d="M145.403 33.2107L147.491 32.8336V25.3938L145.403 25.0409L145.622 21.9423H153.708L153.844 22.1308L153.436 25.9594L153.543 25.9884C154.302 23.0251 156.009 21.541 158.807 21.541C162.684 21.541 164.475 23.8856 164.475 27.2018V32.8336L166.562 33.2107L166.401 36.0387H156.72L156.637 33.2107L158.131 32.9158V28.4394C158.131 26.7426 157.586 26.0126 156.014 26.0126C154.443 26.0126 153.844 26.9843 153.844 28.4635V32.911L155.338 33.2059L155.255 36.0338H145.569L145.403 33.2107Z" fill="#087761"/>
<path d="M167.54 29.034C167.54 24.5575 170.415 21.541 176.521 21.541C182.627 21.541 185.502 24.5575 185.502 29.034C185.502 33.4814 182.627 36.4447 176.521 36.4447C170.415 36.4447 167.54 33.4814 167.54 29.034ZM178.851 28.9518C178.851 25.476 177.927 24.5044 176.521 24.5044C175.056 24.5044 174.19 25.5002 174.19 28.9518C174.19 32.268 174.979 33.4814 176.521 33.4814C178.063 33.4814 178.851 32.297 178.851 28.9518Z" fill="#087761"/>
<path d="M190.571 34.7769L189.949 36.4496L186.854 36.0435L187.56 30.2763L190.951 30.6824V31.3302C190.951 32.7611 192.469 33.5152 194.449 33.5152C195.534 33.5152 196.293 33.2203 196.293 32.5967C196.293 32.0021 196.074 31.6541 192.44 30.4697C187.555 28.8793 187.287 27.1535 187.287 25.563C187.287 23.9194 188.319 21.5458 193.335 21.5458C195.534 21.5458 197.402 22.1404 198.652 23.0299L199.222 21.5458L202.316 21.9519L201.8 26.8296L198.516 26.4235L198.487 26.0996C198.38 24.7509 196.75 24.0789 194.877 24.0789C193.899 24.0789 193.549 24.4028 193.549 24.8089C193.549 25.3745 193.821 25.6162 198.132 27.0181C202.389 28.391 202.768 30.4407 202.768 31.8426C202.768 34.5932 200.545 36.4496 196.229 36.4496C193.607 36.4447 191.739 35.855 190.571 34.7769Z" fill="#087761"/>
<path d="M213.71 36.0435H204.028L203.868 33.2155L205.955 32.8385V17.9299L203.868 17.5819L204.087 14.4832H212.304V22.1356L211.895 25.9643L212.002 25.9933C212.761 23.0009 214.469 21.5459 217.266 21.5459C221.144 21.5459 222.934 23.8614 222.934 27.2067V32.8385L225.021 33.2155L224.861 36.0435H215.174L215.092 33.2155L216.585 32.9206V28.4442C216.585 26.7474 216.045 26.0175 214.469 26.0175C212.897 26.0175 212.299 26.9891 212.299 28.4684V32.8868L213.793 33.2107L213.71 36.0435Z" fill="#087761"/>
<path d="M235.009 33.317C234.304 35.2023 232.893 36.4447 230.183 36.4447C227.605 36.4447 225.737 35.1782 225.737 32.6161C225.737 30.6776 226.792 29.2467 230.023 28.8986C232.708 28.6279 234.226 28.333 235.068 27.8206L235.121 26.4718C235.258 23.32 233.929 22.6722 233.034 22.6722C232.489 22.6722 232.222 22.8607 232.222 22.9671C232.222 23.2378 232.898 23.7744 232.898 25.3406C232.898 27.3903 231.137 28.1155 229.804 28.1155C227.877 28.1155 226.632 26.9843 226.632 25.3648C226.632 22.561 230.456 21.5362 234.416 21.5362C239.952 21.5362 241.684 23.3151 241.441 27.4387L241.281 30.1361C241.174 31.8329 241.281 32.6982 241.933 32.6982C242.638 32.6982 242.638 32.1036 242.584 30.8371L242.555 30.1893L244.292 29.9718L244.453 31.2915C244.886 34.9026 242.881 36.4399 239.568 36.4399C237.15 36.4447 235.467 35.5842 235.009 33.317ZM234.927 31.1078L235.009 29.1935C234.737 29.353 234.44 29.4884 234.114 29.6527C232.786 30.2473 232.324 30.7017 232.324 31.6492C232.324 32.4034 232.786 32.8626 233.492 32.8626C234.246 32.8626 234.761 32.3212 234.927 31.1078Z" fill="#087761"/>
<path d="M263.057 36.4447H262.648C254.621 36.4447 251.419 31.8088 251.419 26.3365V25.7951C251.419 20.1633 254.538 15.4161 262.381 15.4161H262.541C265.47 15.4161 267.941 16.2766 269.566 17.4658L269.946 15.6578L273.23 16.0639L272.388 24.1756L268.185 23.9049L268.267 23.1218C268.564 20.1585 265.825 19.24 263.928 19.24C260.24 19.24 258.557 21.8794 258.557 25.7612C258.557 29.6962 260.211 32.3357 263.845 32.3357C266.312 32.3357 268.754 31.1755 268.404 27.8883L268.297 26.8634L272.422 26.4042L272.612 27.9656C273.201 32.94 269.542 36.4979 263.057 36.4447Z" fill="#087761"/>
<path d="M274.373 33.2107L276.46 32.8336V25.3938L274.373 25.0409L274.592 21.9423H282.678L282.814 22.1308L282.405 26.496L282.513 26.525C283.461 22.4015 285.904 21.541 287.801 21.541C290.705 21.541 292.004 23.2136 292.004 25.2585C292.004 27.4677 290.759 28.976 288.56 28.976C286.852 28.976 285.305 27.9801 285.305 25.9594C285.305 24.9104 285.631 24.5865 285.631 24.4512C285.631 24.3448 285.578 24.3158 285.495 24.3158C284.57 24.3158 282.809 26.8489 282.809 29.8944V32.6983L287.421 33.2107L287.314 36.0387H274.539L274.373 33.2107Z" fill="#087761"/>
<path d="M301.448 36.4447C295.969 36.4447 292.982 33.6941 292.982 28.9228C292.982 24.0161 295.887 21.5362 301.092 21.5362C306.464 21.5362 309.422 23.9339 308.74 29.2467H299.166C298.893 31.9683 300.737 32.9641 303.316 32.9641C305.077 32.9641 306.245 32.2922 306.357 30.9144L306.386 30.5905L308.23 30.5084L308.283 31.103C308.633 34.8833 305.515 36.4447 301.448 36.4447ZM299.195 27.632H303.019C303.316 24.5865 302.177 24.2095 301.175 24.2095C300.144 24.2095 299.03 24.5575 299.195 27.632Z" fill="#087761"/>
<path d="M318.782 36.4447C313.304 36.4447 310.317 33.6941 310.317 28.9228C310.317 24.0161 313.221 21.5362 318.427 21.5362C323.798 21.5362 326.756 23.9339 326.075 29.2467H316.5C316.228 31.9683 318.072 32.9641 320.65 32.9641C322.411 32.9641 323.579 32.2922 323.691 30.9144L323.72 30.5905L325.564 30.5084L325.618 31.103C325.968 34.8833 322.849 36.4447 318.782 36.4447ZM316.53 27.632H320.353C320.65 24.5865 319.512 24.2095 318.51 24.2095C317.478 24.2095 316.369 24.5575 316.53 27.632Z" fill="#087761"/>
<path d="M336.851 36.0435H327.549L327.388 33.2155L329.476 32.8385V17.9299L327.388 17.5819L327.607 14.4832H335.825V27.9608L339.24 25.3455L337.42 25.0506L337.503 21.9519H348.299L348.459 25.0506L343.195 25.7226L342.3 26.3945L346.207 32.8095L348.542 33.2155L348.381 36.0435H338.398L338.291 33.2155L339.512 32.9738L337.668 29.9283L335.825 31.3302V32.9206L336.992 33.2155L336.851 36.0435Z" fill="#087761"/>
<path d="M104.95 53.5916V57.8118H103.529V46.1324H107.455C110.209 46.1324 111.406 47.7277 111.406 49.8257C111.406 51.9238 110.214 53.5867 107.48 53.5867H104.95V53.5916ZM104.95 52.3347H107.475C109.358 52.3347 110 51.2615 110 49.8257C110 48.39 109.358 47.3845 107.451 47.3845H104.95V52.3347Z" fill="#087761"/>
<path d="M117.984 50.488C117.847 50.4203 117.619 50.3043 117.225 50.3043C115.78 50.3043 114.953 51.6724 114.928 52.8567V57.8069H113.576V49.0474H114.928V50.5508H115.021C115.274 49.7049 116.237 48.9072 117.268 48.9072C117.726 48.9072 118.164 49.0668 118.441 49.2263L117.984 50.488Z" fill="#087761"/>
<path d="M119.039 53.4755C119.039 50.7394 120.645 48.9362 123.034 48.9362C125.422 48.9362 127.028 50.7394 127.028 53.4755C127.028 56.1875 125.422 57.9906 123.034 57.9906C120.65 57.9906 119.039 56.1875 119.039 53.4755ZM125.675 53.4755C125.675 51.7207 124.848 50.1448 123.034 50.1448C121.219 50.1448 120.392 51.7207 120.392 53.4755C120.392 55.2303 121.219 56.7821 123.034 56.7821C124.848 56.7821 125.675 55.2303 125.675 53.4755Z" fill="#087761"/>
<path d="M128.911 49.0523H130.219V50.4445H130.38C130.677 49.9901 131.207 48.9411 132.929 48.9411C135.158 48.9411 136.695 50.6959 136.695 53.4562C136.695 56.2407 135.158 57.9955 132.954 57.9955C131.256 57.9955 130.682 56.9464 130.385 56.4679H130.268V61.099H128.916V49.0523H128.911ZM132.764 50.1448C131.11 50.1448 130.239 51.4693 130.239 53.4272C130.239 55.4092 131.134 56.7821 132.764 56.7821C134.462 56.7821 135.333 55.298 135.333 53.4272C135.338 51.5805 134.486 50.1448 132.764 50.1448Z" fill="#087761"/>
<path d="M138.344 53.4997C138.344 50.807 139.925 48.9362 142.314 48.9362C144.148 48.9362 146.099 50.0529 146.099 53.316V53.8864H139.711C139.848 55.7814 140.855 56.7821 142.45 56.7821C143.53 56.7821 144.309 56.3276 144.654 55.414L145.963 55.7766C145.549 57.1011 144.241 57.9906 142.45 57.9906C139.901 57.9906 138.344 56.1875 138.344 53.4997ZM139.74 52.7214H144.722C144.722 51.2373 143.783 50.1448 142.314 50.1448C140.957 50.1448 139.959 51.0826 139.74 52.7214Z" fill="#087761"/>
<path d="M152.594 50.488C152.458 50.4203 152.229 50.3043 151.835 50.3043C150.39 50.3043 149.563 51.6724 149.539 52.8567V57.8069H148.186V49.0474H149.539V50.5508H149.631C149.884 49.7049 150.848 48.9072 151.879 48.9072C152.336 48.9072 152.774 49.0668 153.051 49.2263L152.594 50.488Z" fill="#087761"/>
<path d="M158.676 50.3043H156.793V55.298C156.793 56.4388 157.367 56.6225 157.965 56.6225C158.262 56.6225 158.447 56.579 158.564 56.5549L158.841 57.7634C158.656 57.8311 158.335 57.9229 157.829 57.9229C156.681 57.9229 155.44 57.193 155.44 55.6654V50.3043H154.107V49.0522H155.44V47.1814H156.793V49.0522H158.676V50.3043Z" fill="#087761"/>
<path d="M163.302 57.8649L160.033 49.0474H161.502L163.93 56.0279H164.027L166.46 49.0474H167.929L164.139 59.2185C163.633 60.5624 162.762 61.2005 161.546 61.2005C161.089 61.2005 160.695 61.1086 160.558 61.0409L160.904 59.8566C161.867 60.0838 162.49 59.9726 162.991 58.6722L163.302 57.8649Z" fill="#087761"/>
<path d="M176.025 46.1324L180.043 55.6654H180.179L184.149 46.1324H185.731V57.8118H184.397V49.0523H184.281L180.724 57.7199H179.44L175.884 49.0523H175.767V57.8118H174.434V46.1324H176.025Z" fill="#087761"/>
<path d="M193.675 56.6225H193.607C193.33 57.193 192.527 58.0148 190.99 58.0148C189.316 58.0148 187.983 57.0334 187.983 55.3221C187.983 53.3401 189.749 52.9486 191.403 52.7455C192.62 52.586 193.675 52.6295 193.675 52.0591V52.0349C193.675 50.575 192.897 50.1206 191.841 50.1206C190.532 50.1206 189.822 50.807 189.52 51.4451L188.236 50.9907C188.927 49.3955 190.44 48.9362 191.773 48.9362C192.897 48.9362 195.033 49.2553 195.033 52.0397V57.8117H193.68V56.6225H193.675ZM193.675 53.4078C193.447 53.6834 191.909 53.8429 191.335 53.9106C190.279 54.0459 189.34 54.365 189.34 55.3947C189.34 56.3276 190.119 56.8111 191.199 56.8111C192.804 56.8111 193.68 55.7379 193.68 54.6454V53.4078H193.675Z" fill="#087761"/>
<path d="M198.861 57.8069H197.509V49.0474H198.861V50.5315H198.954C199.367 49.642 200.238 48.9362 201.571 48.9362C203.226 48.9362 204.418 50.0094 204.418 52.2428V57.8069H203.065V52.3346C203.065 51.0584 202.262 50.2366 201.138 50.2366C200.126 50.2366 198.866 50.9907 198.866 52.6295V57.8069H198.861Z" fill="#087761"/>
<path d="M212.173 56.6225H212.104C211.827 57.193 211.024 58.0148 209.487 58.0148C207.813 58.0148 206.48 57.0334 206.48 55.3221C206.48 53.3401 208.246 52.9486 209.9 52.7455C211.117 52.586 212.173 52.6295 212.173 52.0591V52.0349C212.173 50.575 211.394 50.1206 210.338 50.1206C209.03 50.1206 208.319 50.807 208.018 51.4451L206.733 50.9907C207.424 49.3955 208.937 48.9362 210.27 48.9362C211.394 48.9362 213.53 49.2553 213.53 52.0397V57.8117H212.177V56.6225H212.173ZM212.173 53.4078C211.944 53.6834 210.406 53.8429 209.832 53.9106C208.777 54.0459 207.838 54.365 207.838 55.3947C207.838 56.3276 208.616 56.8111 209.696 56.8111C211.302 56.8111 212.177 55.7379 212.177 54.6454V53.4078H212.173Z" fill="#087761"/>
<path d="M223.328 49.0522V57.8794C223.328 60.137 221.514 61.0941 219.47 61.0941C217.587 61.0941 216.464 60.2723 215.914 59.3393L216.994 58.5852C217.339 59.0203 217.957 59.8856 219.475 59.8856C220.828 59.8856 222 59.1991 221.976 57.7392V56.1875H221.859C221.562 56.666 221.008 57.6715 219.29 57.6715C217.154 57.6715 215.549 56.1198 215.549 53.3836C215.549 50.691 217.086 48.9362 219.315 48.9362C221.037 48.9362 221.587 49.9852 221.888 50.4396H222.024V49.0474H223.328V49.0522ZM219.47 56.463C221.1 56.463 221.995 55.298 221.995 53.3595C221.995 51.4645 221.124 50.1448 219.47 50.1448C217.748 50.1448 216.901 51.5805 216.901 53.3595C216.901 55.1868 217.772 56.463 219.47 56.463Z" fill="#087761"/>
<path d="M225.391 53.4997C225.391 50.807 226.977 48.9362 229.361 48.9362C231.195 48.9362 233.151 50.0529 233.151 53.316V53.8864H226.763C226.899 55.7814 227.906 56.7821 229.502 56.7821C230.582 56.7821 231.361 56.3276 231.706 55.414L233.015 55.7766C232.601 57.1011 231.292 57.9906 229.502 57.9906C226.953 57.9906 225.391 56.1875 225.391 53.4997ZM226.792 52.7214H231.774C231.774 51.2373 230.835 50.1448 229.366 50.1448C228.008 50.1448 227.011 51.0826 226.792 52.7214Z" fill="#087761"/>
<path d="M241.597 57.8069H240.22V52.0833C240.22 50.7587 239.602 50.2366 238.614 50.2366C237.583 50.2366 236.595 51.1503 236.595 52.586V57.8069H235.243V49.0474H236.595V50.5315H236.688C236.941 49.7774 237.86 48.9362 238.984 48.9362C240.084 48.9362 240.867 49.642 241.256 50.5122H241.349C241.602 49.7822 242.609 48.9362 243.898 48.9362C245.367 48.9362 246.559 49.9417 246.559 52.0833V57.8069H245.207V52.0349C245.207 50.6668 244.219 50.2318 243.484 50.2318C242.292 50.2318 241.602 51.0777 241.602 52.3056V57.8069H241.597Z" fill="#087761"/>
<path d="M248.573 53.4997C248.573 50.807 250.159 48.9362 252.543 48.9362C254.377 48.9362 256.333 50.0529 256.333 53.316V53.8864H249.945C250.082 55.7814 251.089 56.7821 252.684 56.7821C253.765 56.7821 254.543 56.3276 254.888 55.414L256.197 55.7766C255.784 57.1011 254.475 57.9906 252.684 57.9906C250.13 57.9906 248.573 56.1875 248.573 53.4997ZM249.97 52.7214H254.952C254.952 51.2373 254.013 50.1448 252.543 50.1448C251.186 50.1448 250.189 51.0826 249.97 52.7214Z" fill="#087761"/>
<path d="M259.773 57.8069H258.42V49.0474H259.773V50.5315H259.865C260.279 49.642 261.15 48.9362 262.483 48.9362C264.137 48.9362 265.329 50.0094 265.329 52.2428V57.8069H263.976V52.3346C263.976 51.0584 263.174 50.2366 262.05 50.2366C261.038 50.2366 259.778 50.9907 259.778 52.6295V57.8069H259.773Z" fill="#087761"/>
<path d="M271.405 50.3043H269.523V55.298C269.523 56.4388 270.097 56.6225 270.695 56.6225C270.992 56.6225 271.177 56.579 271.294 56.5549L271.571 57.7634C271.386 57.8311 271.065 57.9229 270.559 57.9229C269.411 57.9229 268.17 57.193 268.17 55.6654V50.3043H266.837V49.0522H268.17V47.1814H269.523V49.0522H271.405V50.3043Z" fill="#087761"/>
<path d="M284.245 56.8304C283.456 57.5942 282.26 57.9713 281.184 57.9713C278.869 57.9713 277.443 56.6032 277.443 54.7082C277.443 53.2918 278.392 52.4168 279.764 51.4742C278.966 50.517 278.387 49.6952 278.387 48.8251C278.387 47.0219 279.511 46.0212 281.282 46.0212C283.004 46.0212 284.084 47.1621 284.084 48.4625C284.084 49.5792 283.486 50.3575 282.522 51.0633L281.661 51.7014L284.215 54.7952C284.522 54.2103 284.702 53.4997 284.702 52.702H286.011C286.011 53.9928 285.719 54.9789 285.072 55.8346L286.701 57.8118H285.072L284.245 56.8304ZM281.184 56.7821C281.972 56.7821 282.78 56.4437 283.422 55.8394L280.61 52.47L280.172 52.7891C279.073 53.5867 278.82 54.3843 278.82 54.7034C278.82 55.8008 279.715 56.7821 281.184 56.7821ZM280.824 50.691L281.598 50.1206C282.264 49.6855 282.697 49.2553 282.697 48.4577C282.697 47.8631 282.123 47.1814 281.277 47.1814C280.382 47.1814 279.764 47.9356 279.764 48.7767C279.759 49.3375 280.25 49.9901 280.824 50.691Z" fill="#087761"/>
<path d="M296.651 47.225C295.089 47.225 294.057 48.0468 294.057 49.1876C294.057 50.1206 294.768 50.691 296.329 51.1019L297.521 51.421C299.75 52.0156 300.825 52.9969 300.825 54.6164C300.825 56.5307 299.287 58.0148 296.578 58.0148C294.053 58.0148 292.491 56.7144 292.355 54.8001H293.824C293.941 56.1246 295.176 56.7386 296.578 56.7386C298.207 56.7386 299.448 55.8926 299.448 54.6164C299.448 53.5674 298.689 53.1323 297.108 52.6779L295.663 52.267C293.829 51.7449 292.681 50.8071 292.681 49.236C292.681 47.2733 294.447 45.9729 296.699 45.9729C298.971 45.9729 300.557 47.2975 300.669 49.1441H299.292C299.083 47.8872 298.076 47.225 296.651 47.225Z" fill="#087761"/>
<path d="M302.571 53.4997C302.571 50.807 304.157 48.9362 306.541 48.9362C308.376 48.9362 310.331 50.0529 310.331 53.316V53.8864H303.943C304.08 55.7814 305.087 56.7821 306.683 56.7821C307.763 56.7821 308.541 56.3276 308.886 55.414L310.195 55.7766C309.782 57.1011 308.473 57.9906 306.683 57.9906C304.133 57.9906 302.571 56.1875 302.571 53.4997ZM303.973 52.7214H308.955C308.955 51.2373 308.016 50.1448 306.546 50.1448C305.189 50.1448 304.192 51.0826 303.973 52.7214Z" fill="#087761"/>
<path d="M318.111 51.6724C317.906 50.8747 317.191 50.1448 315.999 50.1448C314.413 50.1448 313.357 51.4451 313.357 53.4272C313.357 55.4575 314.389 56.7821 315.999 56.7821C317.055 56.7821 317.858 56.2116 318.111 55.2545H319.463C319.234 56.8062 317.95 57.9906 315.999 57.9906C313.542 57.9906 312.005 56.1198 312.005 53.4272C312.005 50.8022 313.591 48.9362 315.975 48.9362C317.833 48.9362 319.234 50.0287 319.463 51.6724H318.111V51.6724Z" fill="#087761"/>
<path d="M326.99 49.0522H328.342V57.8117H326.99V56.579H326.897C326.459 57.2413 325.613 57.9229 324.28 57.9229C322.995 57.9229 321.434 56.9174 321.434 54.6164V49.0522H322.786V54.6164C322.786 55.8926 323.589 56.6225 324.713 56.6225C325.725 56.6225 326.985 55.9844 326.985 54.3408V49.0522H326.99Z" fill="#087761"/>
<path d="M335.231 50.488C335.095 50.4203 334.866 50.3043 334.472 50.3043C333.027 50.3043 332.2 51.6724 332.176 52.8567V57.8069H330.823V49.0474H332.176V50.5508H332.268C332.521 49.7049 333.484 48.9072 334.516 48.9072C334.973 48.9072 335.411 49.0668 335.688 49.2263L335.231 50.488Z" fill="#087761"/>
<path d="M336.924 46.8866C336.924 46.4321 337.289 45.9729 337.887 45.9729C338.486 45.9729 338.851 46.4273 338.851 46.8866C338.851 47.3893 338.486 47.8002 337.887 47.8002C337.289 47.8002 336.924 47.3845 336.924 46.8866ZM338.573 57.8069H337.221V49.0474H338.573V57.8069Z" fill="#087761"/>
<path d="M344.747 50.3043H342.864V55.298C342.864 56.4388 343.439 56.6225 344.037 56.6225C344.334 56.6225 344.519 56.579 344.635 56.5549L344.913 57.7634C344.728 57.8311 344.407 57.9229 343.901 57.9229C342.753 57.9229 341.512 57.193 341.512 55.6654V50.3043H340.179V49.0522H341.512V47.1814H342.864V49.0522H344.747V50.3043Z" fill="#087761"/>
<path d="M349.374 57.8649L346.105 49.0474H347.574L350.002 56.0279H350.099L352.531 49.0474H354.001L350.211 59.2185C349.705 60.5624 348.834 61.2005 347.618 61.2005C347.16 61.2005 346.766 61.1086 346.63 61.0409L346.975 59.8566C347.939 60.0838 348.562 59.9726 349.063 58.6722L349.374 57.8649Z" fill="#087761"/>
</svg>
