<?xml version="1.0" encoding="utf-8"?>
<!-- Generator: Adobe Illustrator 23.0.1, SVG Export Plug-In . SVG Version: 6.00 Build 0)  -->
<svg version="1.1" id="Layer_1" xmlns="http://www.w3.org/2000/svg" xmlns:xlink="http://www.w3.org/1999/xlink" x="0px" y="0px"
	 viewBox="0 0 480 480" style="enable-background:new 0 0 480 480;" xml:space="preserve">
<style type="text/css">
	.st0{fill:#088F74;}
</style>
<g>
	<path class="st0" d="M454.8,242.1l-15.8-131c-4-33.3-27.7-60.9-60-69.9L265.6,9.5c-14.2-4-29.2-4.1-43.5-0.3L99.8,41.5
		C66.4,50.3,42,78.8,38.4,113.1L25.1,241.7c-2.2,20.9,3.6,41.9,16.7,58.2c56.2,70,151.6,173.6,202.1,173.6
		c50.5,0,141.9-103.4,195.4-173.4C452,283.6,457.3,262.8,454.8,242.1z M301.5,299.7l-58.5-42.5l-58.5,42.5l22.4-68.8l-58.5-42.5
		h72.3l22.4-68.8l22.4,68.8h72.3l-58.5,42.5L301.5,299.7z"/>
</g>
</svg>
